<svg width="48" height="17" viewBox="0 0 48 17" fill="none" xmlns="http://www.w3.org/2000/svg">
<path d="M8.00002 14.3333V8.99999M8.00002 8.99999V3.66666M8.00002 8.99999H13.3334M8.00002 8.99999H2.66669" stroke="#74A512" stroke-width="1.5" stroke-linecap="round"/>
<path d="M22.6399 14H20.3331L23.848 3.81818H26.6222L30.1321 14H27.8253L25.2749 6.14489H25.1953L22.6399 14ZM22.4957 9.99787H27.9446V11.6783H22.4957V9.99787ZM33.7763 14.1243C33.1963 14.1243 32.6709 13.9751 32.2003 13.6768C31.733 13.3752 31.3617 12.9328 31.0866 12.3494C30.8149 11.7628 30.679 11.0436 30.679 10.1918C30.679 9.31676 30.8198 8.58925 31.1016 8.00923C31.3833 7.4259 31.7578 6.99006 32.2251 6.7017C32.6958 6.41004 33.2112 6.2642 33.7713 6.2642C34.1989 6.2642 34.5552 6.33712 34.8402 6.48295C35.1286 6.62547 35.3606 6.80445 35.5362 7.01989C35.7152 7.23201 35.8511 7.44081 35.9439 7.64631H36.0085V3.81818H38.1214V14H36.0334V12.777H35.9439C35.8445 12.9891 35.7036 13.1996 35.5213 13.4084C35.3423 13.6139 35.1087 13.7846 34.8203 13.9205C34.5353 14.0563 34.1873 14.1243 33.7763 14.1243ZM34.4474 12.4389C34.7888 12.4389 35.0772 12.3461 35.3125 12.1605C35.5511 11.9716 35.7334 11.7081 35.8594 11.37C35.9886 11.032 36.0533 10.6359 36.0533 10.1818C36.0533 9.72775 35.9903 9.33333 35.8643 8.99858C35.7384 8.66383 35.5561 8.4053 35.3175 8.22301C35.0788 8.04072 34.7888 7.94957 34.4474 7.94957C34.0994 7.94957 33.8061 8.04403 33.5675 8.23295C33.3288 8.42187 33.1482 8.68371 33.0256 9.01847C32.9029 9.35322 32.8416 9.741 32.8416 10.1818C32.8416 10.6259 32.9029 11.0187 33.0256 11.3601C33.1515 11.6982 33.3321 11.9633 33.5675 12.1555C33.8061 12.3445 34.0994 12.4389 34.4474 12.4389ZM42.6767 14.1243C42.0967 14.1243 41.5713 13.9751 41.1007 13.6768C40.6333 13.3752 40.2621 12.9328 39.987 12.3494C39.7153 11.7628 39.5794 11.0436 39.5794 10.1918C39.5794 9.31676 39.7202 8.58925 40.002 8.00923C40.2837 7.4259 40.6582 6.99006 41.1255 6.7017C41.5962 6.41004 42.1116 6.2642 42.6717 6.2642C43.0993 6.2642 43.4556 6.33712 43.7406 6.48295C44.0289 6.62547 44.2609 6.80445 44.4366 7.01989C44.6156 7.23201 44.7515 7.44081 44.8443 7.64631H44.9089V3.81818H47.0218V14H44.9338V12.777H44.8443C44.7449 12.9891 44.604 13.1996 44.4217 13.4084C44.2427 13.6139 44.0091 13.7846 43.7207 13.9205C43.4357 14.0563 43.0877 14.1243 42.6767 14.1243ZM43.3478 12.4389C43.6892 12.4389 43.9776 12.3461 44.2129 12.1605C44.4515 11.9716 44.6338 11.7081 44.7598 11.37C44.889 11.032 44.9537 10.6359 44.9537 10.1818C44.9537 9.72775 44.8907 9.33333 44.7647 8.99858C44.6388 8.66383 44.4565 8.4053 44.2179 8.22301C43.9792 8.04072 43.6892 7.94957 43.3478 7.94957C42.9998 7.94957 42.7065 8.04403 42.4679 8.23295C42.2292 8.42187 42.0486 8.68371 41.926 9.01847C41.8033 9.35322 41.742 9.741 41.742 10.1818C41.742 10.6259 41.8033 11.0187 41.926 11.3601C42.0519 11.6982 42.2325 11.9633 42.4679 12.1555C42.7065 12.3445 42.9998 12.4389 43.3478 12.4389Z" fill="#74A512"/>
</svg>
