<svg width="24" height="24" viewBox="0 0 24 24" fill="none" xmlns="http://www.w3.org/2000/svg">
<path d="M4.21046 4.94543H19.7895C21.2593 4.94543 22 5.63914 22 7.05008V16.9501C22 18.3493 21.2593 19.0548 19.7895 19.0548H4.21046C2.74074 19.0548 2 18.3493 2 16.9501V7.05008C2 5.63914 2.74074 4.94543 4.21046 4.94543ZM11.9941 15.0571L19.9189 8.55508C20.2011 8.31992 20.4245 7.77906 20.0717 7.29699C19.7307 6.81492 19.1076 6.80317 18.6961 7.09711L11.9941 11.6356L5.30394 7.09711C4.89242 6.80317 4.26925 6.81492 3.92828 7.29699C3.57554 7.77906 3.79894 8.31992 4.08113 8.55508L11.9941 15.0571Z" fill="white"/>
</svg>
