<svg width="28" height="30" viewBox="0 0 28 30" fill="none" xmlns="http://www.w3.org/2000/svg">
<path d="M15.8039 11C14.1304 11 12.6832 11.9952 12.004 13.4227C11.3249 11.9952 9.88579 11 8.20414 11C5.88378 11 4 12.9007 4 15.2418C4 18.5945 8.83476 22.8934 10.9853 24.639C11.5836 25.1203 12.4244 25.1203 13.0146 24.639C15.1733 22.8852 20 18.5863 20 15.2418C20.0081 12.9007 18.1243 11 15.8039 11Z" stroke="#0D1222" stroke-width="1.2" stroke-miterlimit="10" stroke-linecap="round" stroke-linejoin="round"/>
<circle cx="20" cy="8" r="8" fill="#FF7676"/>
<path d="M17.4804 7.31C17.4804 6.16333 17.667 5.27 18.0404 4.63C18.4137 3.98333 19.067 3.66 20.0004 3.66C20.927 3.66 21.577 3.98333 21.9504 4.63C22.3237 5.27 22.5104 6.16333 22.5104 7.31C22.5104 8.47667 22.3237 9.38333 21.9504 10.03C21.577 10.6767 20.927 11 20.0004 11C19.067 11 18.4137 10.6767 18.0404 10.03C17.667 9.38333 17.4804 8.47667 17.4804 7.31ZM21.6104 7.31C21.6104 6.73 21.5704 6.24 21.4904 5.84C21.417 5.43333 21.2604 5.10667 21.0204 4.86C20.787 4.61333 20.447 4.49 20.0004 4.49C19.547 4.49 19.2004 4.61333 18.9604 4.86C18.727 5.10667 18.5704 5.43333 18.4904 5.84C18.417 6.24 18.3804 6.73 18.3804 7.31C18.3804 7.91 18.417 8.41333 18.4904 8.82C18.5704 9.22667 18.727 9.55333 18.9604 9.8C19.2004 10.0467 19.547 10.17 20.0004 10.17C20.447 10.17 20.787 10.0467 21.0204 9.8C21.2604 9.55333 21.417 9.22667 21.4904 8.82C21.5704 8.41333 21.6104 7.91 21.6104 7.31Z" fill="white"/>
</svg>
