<svg width="24" height="24" viewBox="0 0 24 24" fill="none" xmlns="http://www.w3.org/2000/svg">
<path d="M11.9027 5.98083C11.3093 5.98083 10.7293 6.15678 10.236 6.48643C9.74262 6.81607 9.35811 7.28461 9.13104 7.83278C8.90398 8.38096 8.84457 8.98416 8.96032 9.56611C9.07608 10.148 9.3618 10.6826 9.78136 11.1022C10.2009 11.5217 10.7355 11.8074 11.3174 11.9232C11.8994 12.0389 12.5026 11.9795 13.0507 11.7525C13.5989 11.5254 14.0674 11.1409 14.3971 10.6475C14.7267 10.1542 14.9027 9.57418 14.9027 8.98083C14.9018 8.18546 14.5854 7.42293 14.023 6.86051C13.4606 6.2981 12.6981 5.98174 11.9027 5.98083ZM11.9027 10.4808C11.606 10.4808 11.316 10.3929 11.0693 10.228C10.8227 10.0632 10.6304 9.82895 10.5169 9.55486C10.4033 9.28077 10.3736 8.97917 10.4315 8.6882C10.4894 8.39723 10.6322 8.12995 10.842 7.92017C11.0518 7.7104 11.3191 7.56753 11.61 7.50966C11.901 7.45178 12.2026 7.48148 12.4767 7.59502C12.7508 7.70855 12.9851 7.90081 13.1499 8.14748C13.3147 8.39415 13.4027 8.68416 13.4027 8.98083C13.4022 9.37852 13.244 9.75978 12.9628 10.041C12.6816 10.3222 12.3004 10.4804 11.9027 10.4808Z" fill="white"/>
<path d="M17.6675 3.2117C16.2422 1.78672 14.3395 0.940225 12.3267 0.835587C10.314 0.73095 8.33378 1.37559 6.76836 2.64509C5.20295 3.91459 4.16326 5.71895 3.84997 7.70994C3.53668 9.70092 3.972 11.7374 5.0719 13.4263L10.7394 22.1269C10.8655 22.3205 11.038 22.4796 11.2411 22.5897C11.4443 22.6998 11.6717 22.7574 11.9027 22.7574C12.1338 22.7574 12.3612 22.6998 12.5643 22.5897C12.7675 22.4796 12.9399 22.3205 13.0661 22.1269L18.7338 13.4263C19.7543 11.8596 20.2054 9.98968 20.0112 8.12999C19.8171 6.2703 18.9896 4.53385 17.6675 3.2117ZM17.4769 12.6075L11.9028 21.1645L6.32853 12.6075C4.62227 9.98819 4.98823 6.48287 7.19867 4.27234C7.81641 3.65458 8.54978 3.16454 9.35691 2.83021C10.164 2.49588 11.0291 2.3238 11.9028 2.3238C12.7764 2.3238 13.6415 2.49588 14.4486 2.83021C15.2557 3.16454 15.9891 3.65458 16.6069 4.27234C18.8173 6.48287 19.1832 9.98819 17.4769 12.6075Z" fill="white"/>
</svg>
