<svg width="1190" height="83" viewBox="0 0 1190 83" fill="none" xmlns="http://www.w3.org/2000/svg">
<path d="M852.401 54.5118L847.044 54.5074C844.971 54.5074 842.957 54.1446 841.104 53.5118C841.091 53.5074 841.077 53.5029 841.059 53.4985C831.866 52.2064 825 44.6971 825.416 35.9753L825.689 30.2891V30.2626C825.68 30.2714 825.667 30.2803 825.658 30.2891C824.642 31.329 824.06 32.6742 824.105 34.1212L824.324 40.803C824.606 49.7062 833.325 57.158 843.803 56.8394L875.152 55.8172L852.428 54.5118L852.401 54.5118Z" fill="#DEDEDE"/>
<path d="M832.998 23.6161C833.285 23.4967 833.58 23.3949 833.884 23.3197L832.237 23.3108C828.76 23.2887 825.899 25.7933 825.747 28.9926L825.689 30.2581C826.584 29.3554 827.77 28.6828 829.167 28.3731C829.525 26.2313 831.015 24.4481 832.998 23.6161" fill="#D3D3D3"/>
<path d="M963.883 17.4786C955.956 17.4786 894.967 20.4301 894.967 20.4301L835.214 23.1161C834.757 23.1383 834.31 23.2091 833.88 23.3197C833.58 23.3993 833.285 23.4967 832.998 23.6162C831.015 24.4481 829.525 26.2314 829.167 28.3731C829.189 28.3731 829.207 28.3687 829.225 28.3643C829.583 28.289 829.995 28.2359 830.366 28.2094L893.459 23.8153C893.459 23.8153 894.529 23.7357 896.395 23.5985C909.08 22.6825 958.924 19.1026 966.228 18.8725C969.406 18.7752 971.564 18.9168 973.085 19.1823C971.841 18.3238 969.661 17.4787 963.883 17.4787" fill="#BFBFBF"/>
<path d="M829.042 37.5684C829.042 37.5507 829.042 37.533 829.037 37.5197C829.028 37.2675 829.024 37.0153 829.024 36.7586L829.041 29.3909C829.073 29.028 829.113 28.7094 829.167 28.3776C827.77 28.6829 826.584 29.3555 825.689 30.2626V30.2892L825.416 35.9754C825 44.6971 831.866 52.2064 841.059 53.4986C834.301 51.1666 829.382 44.8697 829.041 37.5684" fill="#E9E9E9"/>
<path d="M980.668 26.0677C979.978 23.302 978.345 21.7001 977.226 20.9081C976.38 20.3593 975.565 19.6071 973.085 19.1779C973.546 19.4965 973.878 19.8106 974.218 20.0894C975.252 20.9966 976.747 22.8152 977.32 25.8774C977.615 27.4527 977.445 30.4396 977.055 33.9088C976.63 37.6613 975.95 41.9757 975.305 45.6927C975.305 45.7016 975.301 45.706 975.301 45.7149C975.301 45.706 975.305 45.7016 975.305 45.6927C974.997 47.476 974.697 49.1266 974.442 50.5028C974.339 51.0515 974.177 51.5028 973.913 51.9675C973.9 51.994 973.748 52.2684 973.649 52.3967H973.645V52.4011C973.694 52.3923 973.743 52.3834 973.792 52.379C976.098 52.0825 977.964 50.5426 978.331 48.5425C979.504 42.2146 981.594 29.767 980.667 26.0677" fill="#DEDEDE"/>
<path d="M875.484 55.7996L875.524 55.804L875.152 55.8173L877.757 55.9633L894.721 56.4633V54.9323L875.484 55.7996Z" fill="#D3D3D3"/>
<path d="M969.446 54.6048L965.302 54.6004L965.369 58.552L967.513 58.6139C970.01 58.7334 972.226 58.1626 972.79 55.9279C973.049 54.888 973.34 53.6933 973.649 52.3967C972.727 53.7419 971.174 54.6048 969.446 54.6048" fill="#D3D3D3"/>
<path d="M875.484 55.7995L894.721 54.9322V54.5472L852.428 54.5118L875.152 55.8172L875.524 55.804L875.484 55.7995Z" fill="#E9E9E9"/>
<path d="M973.645 52.3967C973.488 52.4144 973.331 52.4233 973.175 52.4321L965.266 52.6711L965.302 54.6004L969.446 54.6048C971.174 54.6048 972.727 53.7419 973.649 52.3967C973.649 52.3967 973.649 52.3967 973.654 52.3967H973.649H973.645" fill="#BFBFBF"/>
<path d="M977.055 33.9088C977.445 30.4396 977.61 27.4527 977.32 25.8774C976.747 22.8152 975.252 20.9965 974.218 20.0894C973.878 19.8106 973.542 19.4964 973.085 19.1778C973.085 19.1778 973.085 19.1778 973.081 19.1778C971.559 18.9168 969.406 18.7752 966.228 18.8725C958.928 19.0982 909.084 22.6825 896.399 23.5985C894.529 23.7356 893.463 23.8109 893.463 23.8109L830.371 28.2094C829.977 28.2359 829.538 28.2934 829.171 28.3775C829.113 28.7094 829.077 29.028 829.041 29.3909L829.024 36.7586C829.024 37.0108 829.028 37.2674 829.041 37.5197C829.041 37.5329 829.041 37.5506 829.041 37.5683C829.382 44.8697 834.301 51.1665 841.059 53.4985C841.073 53.5029 841.091 53.5074 841.104 53.5118C842.957 54.1446 844.971 54.5074 847.044 54.5074L860.78 54.5207L894.721 54.5473V54.5428L965.248 52.6711H965.266L973.175 52.4321C973.331 52.4277 973.488 52.4144 973.645 52.3967H973.649C973.649 52.3967 973.649 52.3967 973.654 52.3967C973.748 52.2684 973.9 51.994 973.914 51.9675C974.178 51.5028 974.334 51.0515 974.437 50.5028C974.697 49.1266 974.997 47.476 975.306 45.6928C975.306 45.7016 975.301 45.706 975.301 45.7149C975.301 45.706 975.306 45.7016 975.306 45.6928C975.95 41.9757 976.63 37.6613 977.056 33.9088" fill="#D2D2D2"/>
<path d="M856.828 38.4224C857.589 38.4224 858.216 38.3383 858.712 38.1613C859.209 37.9888 859.621 37.7188 859.952 37.3516C860.279 36.9887 860.534 36.5639 860.709 36.0771C860.888 35.5948 860.977 35.0461 860.977 34.4399C860.977 33.7009 860.789 33.1522 860.413 32.7849C860.037 32.4221 859.442 32.2406 858.627 32.2406C858.041 32.2406 857.652 32.2495 857.45 32.2628L856.103 38.4224H856.828ZM860.203 39.334C860.664 39.7057 861 40.0641 861.21 40.4093C861.425 40.7544 861.604 41.2589 861.747 41.9182L862.083 43.5112C862.204 44.0909 862.32 44.5024 862.432 44.7502C862.544 44.9936 862.696 45.1972 862.884 45.352C863.072 45.5069 863.327 45.622 863.658 45.6972L863.497 46.4495H859.388C859.133 45.737 858.909 44.8918 858.721 43.9095L858.35 42.02C858.242 41.4536 858.117 41.0022 857.969 40.6792C857.826 40.3517 857.638 40.1172 857.419 39.9712C857.195 39.8296 856.895 39.7544 856.519 39.7544H855.803L854.975 43.3741C854.921 43.6263 854.885 43.8431 854.859 44.0245C854.836 44.206 854.827 44.4361 854.827 44.7104C854.827 45.0556 854.917 45.3034 855.096 45.4494C855.275 45.591 855.557 45.6751 855.942 45.6972L855.781 46.4495H849.828L849.989 45.6972C850.311 45.6087 850.562 45.4804 850.732 45.3211C850.902 45.1618 851.054 44.9405 851.175 44.644C851.296 44.352 851.421 43.9316 851.542 43.3741L853.641 33.9841C853.74 33.5372 853.789 33.0902 853.789 32.6522C853.789 32.3336 853.713 32.099 853.565 31.9486C853.413 31.8026 853.171 31.7052 852.836 31.6609L852.997 30.9087H858.739C859.518 30.9087 860.131 30.9308 860.579 30.9706C861.026 31.0149 861.456 31.0945 861.868 31.2229C862.28 31.3468 862.633 31.5016 862.929 31.6875C863.224 31.8734 863.475 32.0946 863.69 32.3557C863.9 32.6123 864.061 32.9132 864.173 33.254C864.285 33.5947 864.339 33.9797 864.339 34.4045C864.339 35.5506 863.998 36.5241 863.314 37.3206C862.629 38.1171 861.59 38.7543 860.194 39.2322L860.203 39.334Z" fill="white"/>
<path d="M867.722 40.2588C869.132 40.2189 870.215 39.9534 870.963 39.4534C871.71 38.9578 872.086 38.2542 872.086 37.3427C872.086 36.9532 871.997 36.6612 871.818 36.4576C871.634 36.2585 871.384 36.1567 871.061 36.1567C870.345 36.1567 869.705 36.5063 869.132 37.2055C868.559 37.9046 868.089 38.9224 867.722 40.2588ZM873.828 44.082C873.049 44.9449 872.216 45.5909 871.321 46.0069C870.426 46.4229 869.455 46.6308 868.412 46.6308C867.516 46.6308 866.751 46.476 866.12 46.1662C865.493 45.8564 865.019 45.3918 864.697 44.7812C864.379 44.1705 864.222 43.4404 864.222 42.5908C864.222 42.1969 864.276 41.6925 864.383 41.0774C864.527 40.2411 864.75 39.4976 865.05 38.8427C865.426 38.0418 865.919 37.3471 866.523 36.7718C867.132 36.1966 867.843 35.7496 868.662 35.4399C869.477 35.1301 870.377 34.9708 871.348 34.9708C872.503 34.9708 873.375 35.1788 873.975 35.5948C874.575 36.0063 874.875 36.6391 874.875 37.4887C874.875 38.0684 874.758 38.5772 874.521 39.0153C874.289 39.4578 873.899 39.8561 873.353 40.2101C872.807 40.5685 872.037 40.8561 871.043 41.0774C870.05 41.2986 868.85 41.4225 867.445 41.4535C867.346 41.9005 867.297 42.3651 867.297 42.843C867.297 43.1218 867.324 43.3917 867.378 43.6439C867.431 43.8961 867.525 44.1218 867.664 44.321C867.803 44.5201 867.986 44.675 868.219 44.7944C868.447 44.9095 868.743 44.9714 869.105 44.9714C869.781 44.9714 870.39 44.8343 870.936 44.5643C871.482 44.2988 872.122 43.8165 872.856 43.1262L873.828 44.082Z" fill="white"/>
<path d="M876.464 43.2635C876.5 43.8077 876.612 44.2458 876.804 44.5777C876.992 44.9096 877.22 45.1353 877.498 45.2592C877.775 45.3875 878.098 45.4494 878.465 45.4494C879.073 45.4494 879.543 45.3034 879.87 45.0114C880.201 44.7193 880.367 44.3078 880.367 43.7768C880.367 43.4537 880.313 43.1882 880.206 42.967C880.098 42.7457 879.919 42.5333 879.678 42.3253C879.431 42.1129 879.029 41.843 878.478 41.5111C877.708 41.0554 877.153 40.5819 876.804 40.0907C876.45 39.6039 876.28 39.0552 876.28 38.4446C876.28 37.3295 876.701 36.471 877.547 35.8736C878.388 35.2718 879.57 34.9753 881.092 34.9753C881.683 34.9753 882.318 35.0196 882.999 35.1169C883.679 35.2099 884.297 35.3382 884.856 35.4975L884.256 38.2189H882.797C882.726 37.5109 882.547 36.9932 882.251 36.6613C881.956 36.325 881.531 36.1568 880.976 36.1568C880.461 36.1568 880.049 36.2896 879.74 36.5507C879.427 36.8117 879.27 37.1657 879.27 37.6171C879.27 37.8959 879.333 38.1437 879.449 38.3561C879.57 38.5685 879.758 38.7809 880.022 38.9933C880.282 39.2057 880.671 39.4623 881.186 39.7677C881.996 40.2456 882.582 40.7412 882.936 41.2456C883.29 41.7545 883.464 42.3519 883.464 43.0334C883.464 43.8077 883.254 44.4715 882.838 45.0158C882.417 45.5645 881.844 45.9672 881.119 46.2327C880.394 46.4982 879.566 46.6309 878.639 46.6309C877.816 46.6309 877.055 46.5822 876.347 46.4849C875.64 46.3875 874.978 46.2548 874.356 46.0866L875 43.2635H876.464Z" fill="white"/>
<path d="M892.644 44.3785C892.098 44.9626 891.615 45.4096 891.181 45.7238C890.751 46.0335 890.303 46.2636 889.838 46.4096C889.368 46.5601 888.826 46.6309 888.213 46.6309C887.591 46.6309 887.072 46.5203 886.66 46.2946C886.253 46.0733 885.953 45.7724 885.769 45.3963C885.586 45.0202 885.492 44.5998 885.492 44.1263C885.492 43.7723 885.519 43.4316 885.572 43.1086C885.626 42.7855 885.738 42.2545 885.908 41.52L887.094 36.5772H885.541L885.702 35.8293C886.177 35.7984 886.548 35.7187 886.817 35.5948C887.085 35.4665 887.313 35.2851 887.501 35.0417C887.689 34.7983 887.868 34.4664 888.039 34.0416C888.209 33.6168 888.397 33.0371 888.602 32.307H891.369L890.697 35.1567H893.499L893.186 36.5772H890.366L889.086 41.781C889.032 42.0111 888.983 42.2324 888.938 42.4536C888.893 42.6749 888.853 42.8829 888.822 43.0864C888.79 43.2856 888.768 43.4537 888.759 43.5865C888.746 43.7192 888.741 43.8387 888.741 43.9449C888.741 44.3033 888.804 44.5644 888.938 44.7237C889.068 44.8874 889.26 44.9715 889.511 44.9715C889.86 44.9715 890.214 44.8476 890.576 44.6042C890.943 44.3653 891.337 43.9891 891.758 43.4803L892.644 44.3785Z" fill="white"/>
<path d="M901.399 39.3693C901.453 39.1259 901.498 38.856 901.529 38.5551C901.565 38.2542 901.583 37.9622 901.583 37.6834C901.583 37.1833 901.484 36.8028 901.296 36.5461C901.104 36.2851 900.786 36.1567 900.352 36.1567C899.636 36.1567 899.005 36.5107 898.45 37.2232C897.899 37.9312 897.451 38.887 897.111 40.0862C896.776 41.2854 896.605 42.3607 896.605 43.3076C896.605 43.8607 896.69 44.2767 896.856 44.5466C897.017 44.821 897.277 44.9582 897.621 44.9582C898.127 44.9582 898.642 44.7148 899.17 44.2236C899.698 43.7368 900.119 43.1616 900.441 42.5023C900.764 41.8385 901.054 40.9358 901.305 39.7897L901.399 39.3693ZM903.136 35.7939L904.174 34.9708L905.463 35.1567L903.691 43.0908C903.597 43.4935 903.53 43.8165 903.489 44.0599C903.445 44.3033 903.427 44.5068 903.427 44.675C903.427 45.0157 903.507 45.2635 903.677 45.4139C903.847 45.5644 904.147 45.6617 904.577 45.6971L904.452 46.4494H900.029L900.652 44.1174L900.499 44.0687C899.976 44.7369 899.492 45.2546 899.045 45.6263C898.593 45.9936 898.154 46.2547 897.72 46.4052C897.286 46.5556 896.784 46.6308 896.216 46.6308C895.679 46.6308 895.204 46.5069 894.797 46.2547C894.39 46.0069 894.068 45.6086 893.83 45.0644C893.593 44.5245 893.477 43.8342 893.477 43.0023C893.477 42.2058 893.571 41.4004 893.759 40.5862C893.947 39.7764 894.224 39.0197 894.591 38.3162C894.958 37.6126 895.424 37.0108 895.983 36.5107C896.547 36.0107 897.183 35.6257 897.89 35.3647C898.602 35.1036 899.376 34.9708 900.213 34.9708C901.354 34.9708 902.33 35.2452 903.136 35.7939Z" fill="white"/>
<path d="M906.815 35.1567H911.595L910.154 41.3474C909.948 42.2324 909.818 42.8386 909.774 43.1705C909.729 43.5068 909.706 43.7679 909.706 43.9582C909.706 44.3122 909.774 44.5732 909.917 44.7325C910.06 44.8918 910.27 44.9715 910.548 44.9715C910.7 44.9715 910.866 44.9317 911.04 44.8609C911.215 44.7901 911.394 44.6839 911.568 44.5423C911.747 44.4051 911.962 44.206 912.217 43.9582C912.468 43.7059 912.692 43.4404 912.884 43.1528C913.077 42.8696 913.233 42.5643 913.363 42.2368C913.489 41.9138 913.605 41.4978 913.712 40.9978L914.979 35.1567H918.287L916.479 43.1926C916.438 43.3741 916.385 43.6351 916.322 43.9714C916.255 44.3122 916.223 44.5954 916.223 44.821C916.223 45.1396 916.313 45.3609 916.492 45.476C916.675 45.5954 916.957 45.6707 917.342 45.6972L917.168 46.4495H912.826L913.448 44.1175L913.31 44.0688C912.598 44.9494 911.909 45.5998 911.242 46.0114C910.579 46.4273 909.823 46.6309 908.981 46.6309C908.203 46.6309 907.589 46.4141 907.137 45.976C906.685 45.5423 906.457 44.9405 906.457 44.1706C906.457 43.6794 906.533 43.0908 906.685 42.4094L907.634 38.1967C907.706 37.8472 907.759 37.5772 907.786 37.387C907.813 37.1967 907.827 37.033 907.827 36.9002C907.827 36.5639 907.742 36.3294 907.576 36.1922C907.406 36.055 907.106 35.9621 906.676 35.909L906.815 35.1567Z" fill="white"/>
<path d="M928.917 38.2543H926.858C926.858 37.7454 926.8 37.3914 926.688 37.1923C926.576 36.9976 926.388 36.8958 926.12 36.8958C925.999 36.8958 925.869 36.9224 925.735 36.971C925.6 37.0197 925.444 37.1082 925.274 37.2321C925.099 37.3604 924.893 37.564 924.651 37.8428C924.41 38.1215 924.208 38.3959 924.047 38.6614C923.886 38.9269 923.752 39.2057 923.644 39.4977C923.537 39.7898 923.434 40.1615 923.345 40.6084L922.078 46.4495H918.77L920.578 38.4136C920.748 37.6613 920.834 37.1171 920.834 36.7852C920.834 36.4666 920.744 36.2453 920.561 36.1303C920.381 36.0108 920.099 35.9356 919.715 35.909L919.889 35.1568L923.054 35.0284H924.356L923.492 37.6702L923.631 37.7189C924.276 36.8162 924.956 36.1303 925.672 35.6701C926.384 35.2054 927.154 34.9753 927.986 34.9753C928.492 34.9753 929.029 35.0461 929.597 35.1877L928.917 38.2543Z" fill="white"/>
<path d="M936.392 39.3693C936.446 39.1259 936.49 38.856 936.526 38.5551C936.562 38.2542 936.58 37.9622 936.58 37.6834C936.58 37.1833 936.481 36.8028 936.289 36.5461C936.096 36.2851 935.783 36.1567 935.344 36.1567C934.633 36.1567 933.997 36.5107 933.447 37.2232C932.892 37.9312 932.449 38.887 932.108 40.0862C931.773 41.2854 931.603 42.3607 931.603 43.3076C931.603 43.8607 931.683 44.2767 931.849 44.5466C932.014 44.821 932.27 44.9582 932.614 44.9582C933.124 44.9582 933.639 44.7148 934.163 44.2236C934.691 43.7368 935.116 43.1616 935.438 42.5023C935.761 41.8385 936.047 40.9358 936.302 39.7897L936.392 39.3693ZM938.133 35.7939L939.171 34.9708L940.46 35.1567L938.683 43.0908C938.594 43.4935 938.527 43.8165 938.482 44.0599C938.442 44.3033 938.419 44.5068 938.419 44.675C938.419 45.0157 938.504 45.2635 938.674 45.4139C938.845 45.5644 939.14 45.6617 939.574 45.6971L939.444 46.4494H935.022L935.644 44.1174L935.497 44.0687C934.973 44.7369 934.485 45.2546 934.037 45.6263C933.59 45.9936 933.147 46.2547 932.713 46.4052C932.278 46.5556 931.777 46.6308 931.209 46.6308C930.672 46.6308 930.202 46.5069 929.794 46.2547C929.387 46.0069 929.065 45.6086 928.827 45.0644C928.59 44.5245 928.469 43.8342 928.469 43.0023C928.469 42.2058 928.563 41.4004 928.751 40.5862C928.939 39.7764 929.217 39.0197 929.588 38.3162C929.955 37.6126 930.421 37.0108 930.98 36.5107C931.54 36.0107 932.175 35.6257 932.887 35.3647C933.599 35.1036 934.369 34.9708 935.206 34.9708C936.352 34.9708 937.327 35.2452 938.133 35.7939Z" fill="white"/>
<path d="M952.702 46.4494H947.922L949.363 40.2588C949.569 39.3782 949.694 38.7675 949.743 38.4356C949.788 38.0993 949.811 37.8383 949.811 37.648C949.811 37.3072 949.739 37.055 949.591 36.8869C949.444 36.7187 949.233 36.6346 948.96 36.6346C948.714 36.6346 948.445 36.7276 948.155 36.909C947.859 37.0904 947.532 37.3781 947.174 37.763C946.812 38.148 946.525 38.5595 946.31 38.9932C946.096 39.4268 945.921 39.9667 945.791 40.6083L944.525 46.4494H941.221L943.03 38.4135C943.065 38.2277 943.119 37.971 943.182 37.6303C943.249 37.294 943.28 37.0108 943.28 36.7851C943.28 36.4665 943.191 36.2452 943.012 36.1302C942.828 36.0107 942.546 35.9399 942.166 35.9089L942.336 35.1567L945.505 35.0328H946.713L946.055 37.4887L946.194 37.5374C946.722 36.8913 947.215 36.3824 947.667 36.0151C948.123 35.6479 948.571 35.3824 949.023 35.2186C949.47 35.0549 949.967 34.9708 950.513 34.9708C951.305 34.9708 951.928 35.1921 952.38 35.6302C952.832 36.0638 953.056 36.6656 953.056 37.4312C953.056 37.9268 952.984 38.5153 952.827 39.1967L951.883 43.4094C951.807 43.759 951.753 44.0289 951.726 44.2192C951.699 44.4095 951.686 44.5732 951.686 44.7059C951.686 45.0511 951.775 45.29 951.946 45.4272C952.12 45.56 952.416 45.6529 952.841 45.6971L952.702 46.4494Z" fill="white"/>
<path d="M961.811 44.3785C961.269 44.9626 960.781 45.4096 960.351 45.7238C959.922 46.0335 959.47 46.2636 959.004 46.4096C958.534 46.5601 957.993 46.6309 957.379 46.6309C956.757 46.6309 956.238 46.5203 955.831 46.2946C955.419 46.0733 955.123 45.7724 954.936 45.3963C954.752 45.0202 954.662 44.5998 954.662 44.1263C954.662 43.7723 954.685 43.4316 954.739 43.1086C954.797 42.7855 954.904 42.2545 955.074 41.52L956.26 36.5772H954.707L954.868 35.8293C955.343 35.7984 955.714 35.7187 955.983 35.5948C956.256 35.4665 956.48 35.2851 956.672 35.0417C956.86 34.7983 957.035 34.4664 957.205 34.0416C957.375 33.6168 957.563 33.0371 957.769 32.307H960.535L959.863 35.1567H962.665L962.352 36.5772H959.532L958.252 41.781C958.198 42.0111 958.149 42.2324 958.104 42.4536C958.06 42.6749 958.019 42.8829 957.988 43.0864C957.957 43.2856 957.939 43.4537 957.925 43.5865C957.916 43.7192 957.908 43.8387 957.908 43.9449C957.908 44.3033 957.975 44.5644 958.104 44.7237C958.234 44.8874 958.427 44.9715 958.682 44.9715C959.026 44.9715 959.38 44.8476 959.747 44.6042C960.11 44.3653 960.504 43.9847 960.924 43.4803L961.811 44.3785Z" fill="white"/>
<path d="M965.378 59.0165L965.266 52.6799V52.671H965.248L894.721 54.5428V66.517H956.466C956.466 66.517 960.669 66.7294 963.068 64.3443C965.033 62.384 965.454 60.0343 965.378 59.0165" fill="#B9B9B9"/>
<path d="M910.539 60.4237H908.784V62.6362H910.539C911.313 62.6362 911.747 62.1672 911.747 61.5255C911.747 60.8839 911.313 60.4237 910.539 60.4237ZM910.436 57.3571H908.784V59.4369H910.436C911.148 59.4369 911.631 59.0696 911.631 58.397C911.631 57.7244 911.148 57.3571 910.436 57.3571ZM910.642 63.6274H907.674V56.3704H910.53C911.891 56.3704 912.746 57.1315 912.746 58.3572C912.746 59.1404 912.249 59.7024 911.756 59.8971C912.325 60.1184 912.858 60.6582 912.858 61.5786C912.858 62.915 911.944 63.6274 910.642 63.6274Z" fill="white"/>
<path d="M918.354 57.3572H916.702V59.6317H918.354C919.097 59.6317 919.603 59.2113 919.603 58.4988C919.603 57.7864 919.097 57.3572 918.354 57.3572ZM919.643 63.6275L918.094 60.5698H916.702V63.6275H915.588V56.366H918.434C919.826 56.366 920.713 57.2554 920.713 58.49C920.713 59.5299 920.073 60.1892 919.249 60.4149L920.941 63.6275H919.643Z" fill="white"/>
<path d="M925.856 58.0076L924.71 61.2291H926.97L925.856 58.0076ZM927.785 63.6274L927.279 62.1672H924.378L923.877 63.6274H922.691L925.381 56.3704H926.276L928.971 63.6274H927.785Z" fill="white"/>
<path d="M935.792 63.6275L932.404 58.521V63.6275H931.289V56.366H932.31L935.702 61.4636V56.366H936.817V63.6275H935.792Z" fill="white"/>
<path d="M943.723 57.8439C943.415 57.512 943.003 57.3571 942.475 57.3571H941.123V62.6362H942.475C943.003 62.6362 943.415 62.4858 943.723 62.1495C944.104 61.7291 944.113 60.9459 944.113 59.9458C944.113 58.9457 944.104 58.2643 943.723 57.8439ZM944.484 62.9416C944.019 63.4018 943.352 63.6274 942.586 63.6274H940.008V56.3704H942.586C943.352 56.3704 944.019 56.5916 944.484 57.0518C945.281 57.8351 945.227 58.8971 945.227 59.9458C945.227 60.9945 945.281 62.1583 944.484 62.9416Z" fill="white"/>
<path d="M950.102 63.685C949 63.685 948.204 63.4328 947.505 62.7292L948.248 62.0035C948.786 62.5345 949.372 62.6982 950.124 62.6982C951.082 62.6982 951.641 62.2911 951.641 61.5876C951.641 61.269 951.547 61.0079 951.35 60.8353C951.167 60.6583 950.979 60.5875 950.549 60.5255L949.681 60.4061C949.081 60.322 948.607 60.1184 948.289 59.822C947.926 59.4857 947.752 59.0299 947.752 58.4369C947.752 57.1714 948.678 56.3085 950.204 56.3085C951.176 56.3085 951.856 56.5519 952.483 57.1315L951.771 57.8263C951.319 57.397 950.795 57.2643 950.173 57.2643C949.309 57.2643 948.835 57.7555 948.835 58.3971C948.835 58.6626 948.915 58.8971 949.112 59.0697C949.3 59.2334 949.6 59.3529 949.936 59.406L950.773 59.5255C951.453 59.6317 951.834 59.7954 952.143 60.0698C952.545 60.4149 952.742 60.9371 952.742 61.5566C952.742 62.8929 951.641 63.685 950.102 63.685Z" fill="white"/>
<g clip-path="url(#clip0_1_39)">
<path d="M614.993 36.4478H618.735V33.1132C618.735 30.5534 619.59 28.465 621.298 26.8483C623.007 25.2315 625.246 24.4231 628.014 24.4231C630.03 24.4231 632.218 24.7768 634.576 25.4841L633.704 31.547C632.918 31.3449 632.218 31.2439 631.603 31.2439C629.108 31.2439 627.86 32.3891 627.86 34.6795V36.4478H633.756V43.7738H627.86V61.5583H618.735V43.7738H614.993V36.4478Z" fill="#D2D2D2"/>
<path d="M647.039 35.8046C643.007 35.8046 639.691 37.0508 637.094 39.5432C634.531 42.002 633.249 45.1682 633.249 49.0417C633.249 52.9489 634.531 56.149 637.094 58.6414C639.657 61.1339 642.973 62.3801 647.039 62.3801C651.106 62.3801 654.421 61.1508 656.984 58.692C659.582 56.1996 660.88 52.9825 660.88 49.042C660.88 47.5218 660.677 46.1119 660.276 44.8102C659.997 44.8772 659.71 44.9117 659.423 44.913C658.847 44.9122 658.279 44.7782 657.765 44.5218C657.251 44.2654 656.805 43.8937 656.463 43.4365C656.219 43.4875 655.97 43.5138 655.72 43.5151C654.743 43.5151 653.806 43.1327 653.116 42.452C652.425 41.7713 652.037 40.8481 652.037 39.8854C652.038 39.784 652.043 39.6826 652.053 39.5816C651.445 39.2793 650.934 38.8168 650.577 38.2455C650.22 37.6743 650.03 37.0166 650.029 36.3456C650.03 36.2507 650.035 36.1559 650.044 36.0614C649.092 35.8935 648.093 35.8047 647.039 35.8047V35.8046ZM647.039 43.2319C648.577 43.2319 649.842 43.7704 650.833 44.8482C651.824 45.926 652.32 47.324 652.32 49.0418C652.32 50.7596 651.807 52.1743 650.782 53.2859C649.791 54.3637 648.543 54.9028 647.04 54.9028C645.536 54.9028 644.289 54.3469 643.297 53.2354C642.306 52.1239 641.811 50.7259 641.811 49.0418C641.811 47.324 642.306 45.926 643.297 44.8482C644.289 43.7704 645.536 43.2319 647.04 43.2319L647.039 43.2319Z" fill="#D2D2D2"/>
<path d="M677.022 35.791C681.089 35.791 684.404 37.0373 686.968 39.5298C689.565 41.9886 690.864 45.1548 690.864 49.0283C690.864 52.9692 689.565 56.1859 686.968 58.6784C684.404 61.1373 681.089 62.3667 677.022 62.3667C672.956 62.3667 669.64 61.1204 667.077 58.6279C664.514 56.1354 663.232 52.9355 663.232 49.0283C663.232 45.1548 664.514 41.9886 667.077 39.5298C669.675 37.0373 672.99 35.791 677.022 35.791ZM671.794 49.0283C671.794 50.7125 672.289 52.1103 673.28 53.2218C674.271 54.3334 675.519 54.8891 677.022 54.8891C678.526 54.8891 679.774 54.3502 680.765 53.2724C681.79 52.1608 682.303 50.7462 682.303 49.0283C682.303 47.3105 681.807 45.9127 680.816 44.8348C679.825 43.757 678.56 43.2181 677.022 43.2181C675.519 43.2181 674.271 43.757 673.28 44.8348C672.289 45.9127 671.794 47.3105 671.794 49.0283Z" fill="#D2D2D2"/>
<path d="M711.498 25.1305H720.674L720.725 61.5584H711.498V58.2238C710.643 60.9521 708.285 62.3162 704.423 62.3162C701.142 62.3162 698.459 61.07 696.375 58.5775C694.29 56.0849 693.248 52.8682 693.248 48.9273C693.248 45.1549 694.341 42.0224 696.528 39.5299C698.75 37.0037 701.501 35.7406 704.782 35.7406C707.345 35.7406 709.037 36.1616 709.857 37.0037C710.677 37.8457 711.224 38.6036 711.498 39.2772V25.1305ZM702.168 49.1294C702.168 50.8473 702.629 52.2451 703.552 53.3229C704.509 54.3671 705.739 54.8892 707.243 54.8892C708.747 54.8892 709.96 54.3671 710.882 53.3229C711.805 52.2451 712.267 50.8473 712.267 49.1294C712.267 47.3443 711.805 45.9127 710.882 44.8349C709.96 43.757 708.747 43.2181 707.243 43.2181C705.739 43.2181 704.509 43.7739 703.552 44.8854C702.629 45.9633 702.168 47.3779 702.168 49.1294Z" fill="#D2D2D2"/>
<path d="M731.234 48.2705L722.007 36.4479H732.926L735.54 40.3888C736.087 41.1635 736.463 42.2582 736.668 43.6728C736.839 42.8308 736.993 42.2076 737.13 41.8034C737.266 41.3656 737.506 40.894 737.847 40.3888L740.462 36.4479H751.381L742.102 48.2705L752.355 61.5584H741.436L738.001 56.6575C737.42 55.8155 736.976 54.6871 736.668 53.2724C736.532 54.0134 736.378 54.5692 736.207 54.9397C736.07 55.3102 735.746 55.8828 735.233 56.6575L731.901 61.5584H721.033L731.234 48.2705Z" fill="#D2D2D2"/>
<path d="M752.637 36.4478H761.762V39.8835C762.856 37.1552 765.214 35.791 768.836 35.791C772.117 35.791 774.783 37.0036 776.834 39.4288C778.918 41.8202 779.961 44.9696 779.961 48.8768C779.961 52.885 778.918 56.1354 776.834 58.6279C774.783 61.0868 772.1 62.3162 768.785 62.3162C765.436 62.3162 763.095 60.9689 761.762 58.2742V71.0063H752.637V36.4478ZM761.147 49.1294C761.147 50.9482 761.608 52.3966 762.531 53.4745C763.488 54.5186 764.752 55.0407 766.325 55.0407C767.828 55.0407 769.024 54.5186 769.913 53.4745C770.836 52.3966 771.297 50.9819 771.297 49.2304C771.297 47.4789 770.836 46.0474 769.913 44.9359C768.99 43.8244 767.777 43.2686 766.273 43.2686C764.769 43.2686 763.539 43.8075 762.582 44.8854C761.625 45.9632 761.147 47.3779 761.147 49.1294Z" fill="#D2D2D2"/>
<path d="M745.577 20.7738C745.577 26.7007 741.077 30.9594 736.678 35.2948C732.407 31.0856 727.779 26.6449 727.779 20.7738C727.779 15.9302 731.763 12.0033 736.678 12.0033C741.592 12.0033 745.577 15.9298 745.577 20.7738Z" fill="#D2D2D2"/>
<path d="M734.306 15.8043C735.053 15.4526 735.89 15.2956 736.716 15.3075C738.013 15.2961 739.304 15.7543 740.314 16.5527C741.226 17.2703 741.905 18.2757 742.204 19.3896C742.571 20.7076 742.384 22.1608 741.709 23.3532C741.24 24.1964 740.535 24.9016 739.707 25.4055L736.173 22.157C736.101 22.0395 736.172 21.9048 736.206 21.7873C736.317 21.4685 736.245 21.0893 736.007 20.8442L733.933 18.8924C733.858 18.8024 733.685 18.8043 733.636 18.92C733.594 18.9823 733.614 19.0599 733.666 19.1098L735.242 20.5968C735.325 20.6586 735.34 20.7881 735.261 20.8585C735.189 20.9294 735.067 20.9103 735.005 20.8366L733.476 19.3972C733.4 19.2959 733.226 19.2821 733.165 19.4039C733.082 19.5561 733.26 19.6599 733.352 19.7522L734.785 21.1031C734.92 21.2058 734.796 21.428 734.637 21.3905C734.518 21.3424 734.441 21.233 734.347 21.1511L733.036 19.9168C732.966 19.8507 732.863 19.7565 732.762 19.8236C732.647 19.8735 732.644 20.0429 732.74 20.1138L734.052 21.3443C734.157 21.4514 734.286 21.5403 734.366 21.6688C734.413 21.8215 734.191 21.9595 734.081 21.833L732.552 20.3974C732.491 20.3422 732.415 20.2651 732.323 20.2989C732.192 20.326 732.15 20.5121 732.256 20.592L734.258 22.4799C734.535 22.7169 734.86 22.8205 735.203 22.7407C735.391 22.6944 735.549 22.5285 735.675 22.6253L738.892 25.8137C737.943 26.1772 736.906 26.3195 735.895 26.1824C734.523 26.0031 733.219 25.3274 732.314 24.2929C731.508 23.3875 731.024 22.2103 730.972 21.006C730.869 19.1145 731.885 17.2184 733.516 16.2225L737.178 19.6932C737.302 19.7883 737.297 19.9563 737.276 20.0947C737.154 20.632 737.359 21.1868 737.675 21.6226C738.065 22.157 738.656 22.5738 739.324 22.6766C739.707 22.7351 740.134 22.649 740.408 22.3635C740.708 22.057 740.764 21.5926 740.671 21.192C740.509 20.5106 740.03 19.9249 739.422 19.5732C739.024 19.351 738.549 19.2083 738.091 19.3101C737.942 19.3463 737.766 19.3406 737.657 19.2197L734.306 15.8043Z" fill="white"/>
</g>
<path fill-rule="evenodd" clip-rule="evenodd" d="M1027 21.277H1188V60.0821H1027V21.277Z" fill="#D2D2D2"/>
<path fill-rule="evenodd" clip-rule="evenodd" d="M1037.82 36.1393L1033.61 55.1282L1037.94 55.0097L1039.7 47.227L1045.91 47.1093L1045.79 42.6272H1040.75L1041.22 40.6223L1047.55 40.5038L1047.44 36.1393H1037.82ZM1059.51 40.5038L1059.27 40.2677L1058.92 40.15L1058.57 40.0324L1058.1 39.9139H1057.28L1056.81 40.0324L1056.34 40.15H1056.23V36.7292L1056.69 36.6116L1057.16 36.4939H1057.52L1057.98 36.3754H1059.51L1059.86 36.4939L1060.21 36.6116H1060.56L1060.91 36.7292L1061.15 36.8468L1061.5 36.9644L1061.73 37.2006L1061.97 37.3182L1062.32 37.5535L1062.67 37.7896L1063.02 38.1434L1063.26 38.3786L1063.49 38.7324L1063.73 39.0861L1063.96 39.4399L1064.2 39.7937L1064.31 40.1474L1064.43 40.5012L1064.55 40.9726L1064.66 41.3272L1064.78 41.7986V42.27L1064.9 42.6246V44.0388L1064.78 44.5119L1064.66 44.9833L1064.55 45.9261L1064.43 46.3992L1064.08 47.342L1063.84 47.6966L1063.73 48.168L1063.14 49.1108L1062.91 49.4654L1062.67 49.9368L1062.32 50.2914L1062.09 50.5258L1061.85 50.762L1061.62 50.9981L1061.38 51.2325L1061.15 51.4686L1060.8 51.8215L1060.56 52.0576L1060.21 52.2938L1059.86 52.5282L1059.51 52.7643L1059.16 52.9987L1058.92 53.2348L1058.45 53.3533L1058.1 53.5894L1057.75 53.7062L1057.4 53.9423L1056.93 54.0608L1056.58 54.1793L1056.23 54.2978V50.7585H1056.34L1056.7 50.5224L1057.17 50.288L1057.63 50.0518L1057.99 49.8157L1058.34 49.4628L1058.69 49.2267L1058.92 48.8738L1059.27 48.6377L1059.51 48.2848L1059.86 47.8134L1060.21 47.3403L1060.45 46.7504L1060.68 46.1605L1060.91 45.6891L1061.03 45.0992L1061.15 44.5093V42.9749L1061.03 42.385L1060.8 41.9136L1060.56 41.559L1060.33 41.2061L1059.98 40.8515L1059.51 40.5038ZM1056.23 40.15L1055.76 40.2677L1055.29 40.5038L1054.82 40.739L1054.35 40.9743L1053.88 41.3289L1053.42 41.8003L1052.95 42.2717L1052.6 42.7448L1052.36 43.0977L1052.13 43.4506L1051.89 43.8052L1051.66 44.2766L1051.54 44.748L1051.42 45.2212L1051.19 45.811V46.2824L1051.07 46.8723L1051.19 47.4622V47.9336L1051.42 48.5235L1051.66 48.9966L1052.01 49.468L1052.36 49.9394L1052.95 50.4125L1053.42 50.6469L1054 50.7654L1054.47 50.8839L1054.94 51.0024L1055.41 50.8839H1055.88L1056.23 50.7654V54.3047H1056.11L1055.76 54.4215L1055.29 54.54L1054.94 54.6585H1053.65L1053.18 54.5383H1052.71L1052.36 54.4198L1051.89 54.303L1051.54 54.0669L1051.07 53.9484L1050.72 53.7123L1050.25 53.3594L1049.78 53.0047L1049.43 52.6519L1049.08 52.1805L1048.73 51.8258L1048.49 51.4729L1048.26 51.0015L1047.91 50.1755L1047.79 49.7041L1047.67 49.231L1047.55 48.8781V48.4067L1047.44 47.9336L1047.55 47.4622V46.5194L1047.67 46.1648V45.6934L1047.79 45.222L1047.91 44.8674L1048.02 44.396L1048.14 44.0414L1048.37 43.6885L1048.49 43.2171L1048.72 42.8625L1048.84 42.5096L1048.96 42.2734L1049.19 41.9205L1049.31 41.6844L1049.54 41.4483L1049.66 41.2139L1050.01 40.7416L1050.36 40.2702L1050.72 39.9165L1051.07 39.5627L1051.54 39.0905L1051.89 38.8552L1052.36 38.5014L1052.71 38.2653L1053.18 37.9116L1053.65 37.6754L1054 37.4402L1054.47 37.3225L1054.93 37.0864L1055.4 36.9679L1055.75 36.8503L1056.22 36.7326V40.15H1056.23ZM1077.44 40.5038L1077.21 40.2677L1076.85 40.15L1076.5 40.0324L1076.03 39.9139H1074.63L1074.16 40.0324L1074.04 40.15V36.6116H1074.16L1074.63 36.4939H1074.98L1075.45 36.3754H1077.79L1078.14 36.4939L1078.49 36.6116L1078.84 36.7292L1079.08 36.8468L1079.43 36.9644L1079.66 37.0829L1079.9 37.3191L1080.25 37.5543L1080.6 37.7905L1080.95 38.0257L1081.19 38.3795L1081.42 38.6147L1081.66 38.9685L1081.89 39.3223L1082.13 39.676L1082.24 40.1474L1082.36 40.5012L1082.48 40.8541L1082.59 41.3272L1082.71 41.7986V42.1515L1082.83 42.6246V44.0388L1082.71 44.3934V44.9833L1082.59 45.4547L1082.48 45.8093L1082.36 46.2807L1082.13 46.7521L1082.01 47.2252L1081.77 47.6966L1081.54 48.168L1081.31 48.6394L1081.07 48.994L1080.84 49.4654L1080.49 49.8183L1080.25 50.2914L1080.02 50.5258L1079.78 50.762L1079.55 50.9981L1079.31 51.2325L1078.96 51.4686L1078.73 51.7047L1078.38 51.9391L1078.14 52.1753L1077.79 52.5282L1077.44 52.6467L1077.09 52.8828L1076.74 53.1172L1076.38 53.3533L1075.68 53.7062L1075.21 53.9423L1074.86 54.0608L1074.51 54.1793L1074.04 54.2978V50.7585L1074.28 50.64L1074.63 50.5215L1075.1 50.2871L1075.45 49.9325L1075.92 49.6981L1076.27 49.462L1076.62 49.1073L1076.85 48.8729L1077.2 48.5183L1077.44 48.2839L1077.79 47.694L1078.14 47.2226L1078.38 46.7495L1078.61 46.1596L1078.84 45.5697L1078.96 45.0983L1079.08 44.5084V42.8616L1078.96 42.3902L1078.73 41.9188L1078.49 41.4457L1078.26 41.0928L1077.91 40.739L1077.44 40.5038ZM1074.04 40.15H1073.69L1073.22 40.3853L1072.75 40.6214L1072.17 40.9743L1071.81 41.3289L1071.35 41.6818L1070.88 42.1532L1070.41 42.7448L1070.29 42.9792L1070.06 43.3339L1069.82 43.8052L1069.59 44.1581L1069.47 44.6313L1069.24 45.2212L1069.12 45.6925V46.2824L1069 46.8723L1069.12 47.3437V47.9336L1069.35 48.4067L1069.59 48.9966L1069.94 49.468L1070.29 49.9394L1070.88 50.294L1071.35 50.5284L1071.82 50.7646L1072.4 50.8831H1073.34L1073.81 50.7646H1074.04V54.3039L1073.69 54.4207L1073.22 54.5392H1072.4L1071.93 54.6576L1071.58 54.5392H1070.64L1070.29 54.4207L1069.82 54.1863L1069.47 54.0678L1069 53.8316L1068.53 53.5972L1068.07 53.2426L1067.71 53.0065L1067.25 52.5351L1066.89 52.1822L1066.66 51.8276L1066.43 51.3562L1066.19 51.0033L1065.96 50.5302L1065.84 50.1773L1065.72 49.7059L1065.61 49.2327L1065.49 48.7614V46.5212L1065.61 46.048V45.5766L1065.72 45.2237L1065.84 44.7506L1065.96 44.3977L1066.08 43.9263L1066.31 43.5717L1066.43 43.2188L1066.54 42.8642L1066.78 42.5113L1066.9 42.1567L1067.13 41.9223L1067.25 41.5677L1067.48 41.3333L1067.6 41.0971L1067.95 40.6257L1068.3 40.2711L1068.65 39.7997L1069.01 39.446L1069.47 39.0922L1069.83 38.7384L1070.18 38.3847L1070.65 38.1494L1071.11 37.9133L1071.47 37.6772L1071.93 37.4419L1072.4 37.2066L1072.87 37.0881L1073.22 36.852L1073.69 36.7344L1074.04 36.6167V40.15H1074.04ZM1132.88 40.3853L1132.53 40.2677L1132.17 40.15L1131.82 39.9139H1130.06L1129.59 40.0324H1129.36V36.6116H1129.48L1129.95 36.4939L1130.42 36.3754H1133.11L1133.46 36.4939L1133.81 36.6116L1134.16 36.7292L1134.4 36.8468L1134.75 36.9644L1134.98 37.0829L1135.22 37.3191L1135.57 37.5543L1135.92 37.7905L1136.27 38.0257L1136.51 38.3795L1136.74 38.6147L1136.98 38.9685L1137.21 39.3223L1137.44 39.676L1137.56 40.1474L1137.79 40.5012L1137.91 40.8541V41.3272L1138.03 41.6801L1138.15 42.6246V43.922L1138.03 44.3934V44.8648L1137.91 45.3362L1137.79 45.8093L1137.68 46.2807L1137.56 46.7521L1137.33 47.2252L1137.09 47.6966L1136.86 48.168L1136.62 48.5209L1136.39 48.994L1136.16 49.4654L1135.57 50.2914L1135.33 50.5258L1135.1 50.762L1134.87 50.9981L1134.63 51.2325L1134.4 51.4686L1134.05 51.7047L1133.81 51.9391L1133.46 52.1753L1133.11 52.4097L1132.88 52.6458L1132.53 52.8819L1132.06 53.1163L1131.71 53.3525L1131.35 53.4709L1130.65 53.8238L1130.18 54.06L1129.83 54.1785L1129.36 54.297V50.6461H1129.59L1130.06 50.4117L1130.42 50.1755L1130.88 49.9394L1131.24 49.705L1131.59 49.4689L1131.94 49.1142L1132.29 48.8799L1132.53 48.5252L1132.76 48.2908L1133.11 47.7009L1133.46 47.2295L1133.7 46.6379L1133.93 46.1665L1134.16 45.5766L1134.28 44.9868L1134.4 44.5154V42.8616L1134.28 42.3902L1134.05 41.9188L1133.81 41.4457L1133.58 41.0928L1133.23 40.739L1132.88 40.3853ZM1129.36 40.0315L1129.01 40.1492L1128.54 40.3844L1128.07 40.6205L1127.6 40.9734L1127.13 41.3281L1126.66 41.681L1126.2 42.1524L1125.84 42.744L1125.61 42.9784L1125.38 43.333L1125.14 43.8044L1124.91 44.1573L1124.79 44.6304L1124.67 45.2203L1124.44 45.6917V46.2816L1124.32 46.753L1124.44 47.3429V47.9327L1124.67 48.4059L1124.91 48.9957L1125.26 49.4671L1125.61 49.82L1126.2 50.2932L1126.66 50.5276L1127.13 50.7637L1127.72 50.8822H1128.66L1129.13 50.7637L1129.36 50.6452V54.303L1129.01 54.4198L1128.54 54.5383H1126.43L1125.96 54.4198L1125.61 54.303L1125.14 54.1845L1124.79 54.066L1124.32 53.8299L1123.85 53.5955L1123.38 53.2409L1123.03 52.888L1122.56 52.5334L1122.33 52.1805L1121.98 51.8258L1121.74 51.3544L1121.51 51.0015L1121.27 50.5284L1121.16 50.057L1121.04 49.7041L1120.92 49.231L1120.81 48.7596V46.5194L1120.92 46.0463L1121.04 45.5749V45.222L1121.16 44.7489L1121.27 44.396L1121.39 43.9246L1121.63 43.57L1121.75 43.2171L1121.86 42.8625L1122.1 42.5096L1122.21 42.1549L1122.45 41.9205L1122.8 41.3307L1122.92 41.0945L1123.27 40.6231L1123.62 40.2685L1123.97 39.7971L1124.32 39.4434L1124.79 39.0896L1125.14 38.7358L1125.61 38.3821L1125.96 38.1468L1126.43 37.9107L1126.9 37.6746L1127.25 37.4393L1127.72 37.204L1128.19 37.0855L1128.66 36.8494L1129.01 36.7318L1129.36 36.6141V40.0315H1129.36ZM1173.08 54.5383L1173.55 54.4198L1173.9 54.1854L1174.37 54.0669L1174.72 53.8308L1175.07 53.7123L1175.54 53.4779L1175.89 53.2417L1176.36 52.8888L1176.71 52.6527L1177.06 52.2998L1177.88 51.5923L1178.23 51.2377L1178.59 50.8848L1178.94 50.4134L1179.29 49.9403L1179.52 49.4689L1179.87 48.9975L1180.11 48.4076L1180.34 47.9345L1180.58 47.3446L1180.81 46.7547L1181.16 45.6934L1181.28 44.7489L1181.39 43.8061V42.8616L1181.28 41.9188L1180.93 40.9743L1180.58 40.1492L1180.11 39.4416L1179.52 38.6156L1178.82 38.0257L1178 37.4358L1177.06 36.9636L1176 36.6098L1174.83 36.3737L1173.54 36.1384H1173.07V40.502H1173.66L1174.13 40.6205L1174.72 40.8549L1175.07 41.0911L1175.53 41.3272L1175.89 41.6801L1176.12 42.0347L1176.35 42.5061L1176.59 42.9775V43.4489L1176.71 44.0388L1176.59 44.6304V45.3362L1176.35 45.9261L1176.12 46.6336L1175.89 47.2252L1175.65 47.8151L1175.3 48.2865L1174.95 48.7579L1174.6 49.2293L1174.13 49.5839L1173.66 49.8183L1173.19 50.1729H1173.07V54.5383H1173.08ZM1168.27 36.1393L1164.05 55.0097H1171.2L1171.55 54.8929H1172.02L1172.37 54.7744L1172.72 54.6559L1173.07 54.5374V50.1738L1172.61 50.2923L1172.14 50.5267L1171.55 50.6452L1171.08 50.7637H1169.32L1171.78 40.5029H1173.07V36.1393H1168.27ZM1155.97 36.2578L1160.65 36.1393L1157.25 50.7646H1163.47L1161.12 55.0097H1151.75L1155.97 36.2578ZM1145.77 36.1393H1147.88L1148.58 36.2569L1149.17 36.3746L1149.64 36.4931L1150.22 36.6107L1150.69 36.8459L1151.04 37.2006L1151.39 37.4358L1151.75 37.7896L1151.98 38.1434L1152.21 38.4971L1152.45 38.8509L1152.56 39.3223V40.6197L1152.45 40.9726L1152.33 41.6801L1152.21 42.27L1151.98 42.7431L1151.75 43.333L1151.51 43.8044L1151.28 44.1573L1150.93 44.5119L1150.57 44.8648L1150.34 45.2194L1149.87 45.4538L1149.64 45.69L1149.29 45.8085L1148.93 46.0429L1148.58 46.1613L1148.35 46.2798L1148 46.3983L1150.46 53.1198L1146.59 55.0071L1145.77 53.0022V44.7463L1146.12 44.5119L1146.36 44.2758L1146.59 44.1573L1146.82 43.9229L1147.06 43.5683L1147.18 43.3339L1147.41 43.0977L1147.53 42.7448L1147.64 42.5087V42.1541L1147.76 41.6827V40.6223L1147.64 40.2677V39.9139L1147.41 39.6786L1147.29 39.4425L1147.06 39.2064L1146.82 39.0887L1146.59 38.9711L1146.36 38.8535L1146.12 38.7358L1145.77 38.6173V36.1393H1145.77ZM1136.86 55.0097L1141.32 36.2569L1145.77 36.1393V38.6156H1145.18L1143.78 45.2212H1144.48L1144.83 45.1027L1145.18 44.9842L1145.53 44.8657L1145.77 44.7472V53.003L1143.54 47.1076L1141.43 55.0088H1136.86V55.0097Z" fill="white"/>
<path fill-rule="evenodd" clip-rule="evenodd" d="M1105.7 49.7227L1106.52 55.0102L1102.26 55.1283L1098.83 36.2041H1102.5L1104.99 50.5442L1105.7 49.7227ZM1129.96 21.277H1133.51L1112.09 55.0102L1107.94 55.1283L1104.51 36.2041H1108.18L1110.9 51.3674L1129.96 21.277Z" fill="white"/>
<path fill-rule="evenodd" clip-rule="evenodd" d="M1090.51 54.6538L1090.98 54.5346L1091.33 54.2987L1091.69 54.1795L1092.51 53.8226L1092.97 53.5868L1093.33 53.3491L1093.68 52.994L1094.15 52.7564L1094.5 52.4013L1094.97 52.0445L1095.32 51.6893L1095.67 51.3325L1096.02 50.9774L1096.37 50.503L1096.61 50.0269L1096.96 49.5526L1097.19 49.0782L1097.54 48.4846L1097.78 48.0085L1098.01 47.415L1098.25 46.8214L1098.6 45.7534L1098.71 44.803L1098.83 43.8543V42.9038L1098.6 41.9551L1098.36 41.0047L1098.01 40.1743L1097.54 39.4624L1096.96 38.6312L1096.25 38.0376L1095.43 37.444L1094.5 36.9688L1093.44 36.6128L1092.27 36.3752L1090.98 36.1384H1090.51V40.5294H1091.1L1091.57 40.6487L1092.15 40.8846L1092.5 41.1222L1092.97 41.3598L1093.32 41.7149L1093.56 42.0717L1093.79 42.5461L1094.03 43.0204V43.4948L1094.14 44.0884L1094.03 44.6837L1093.91 45.394L1093.68 45.9875L1093.56 46.6995L1093.32 47.2948L1093.09 47.8884L1092.74 48.3628L1092.39 48.8371L1092.04 49.3115L1091.57 49.6683L1091.1 49.9042L1090.63 50.2611H1090.51V54.6538ZM1085.71 36.1393L1081.49 55.1282H1088.64L1088.99 55.0107H1089.34L1089.81 54.8914L1090.16 54.7722L1090.51 54.653V50.2619L1090.05 50.3812L1089.58 50.617L1088.99 50.7363L1088.52 50.8555H1086.76L1089.22 40.5303H1090.51V36.1393H1085.71Z" fill="white"/>
<path d="M32.4013 54.5118L27.0436 54.5074C24.9713 54.5074 22.9571 54.1446 21.1041 53.5118C21.0907 53.5074 21.0773 53.5029 21.0593 53.4985C11.8658 52.2064 4.99973 44.6971 5.41599 35.9753L5.68902 30.2891V30.2626C5.67985 30.2714 5.66666 30.2803 5.65772 30.2891C4.64169 31.329 4.05982 32.6742 4.10458 34.1212L4.3239 40.803C4.60589 49.7062 13.325 57.158 23.8031 56.8394L55.1524 55.8172L32.4281 54.5118L32.4013 54.5118Z" fill="#DEDEDE"/>
<path d="M12.9982 23.6161C13.2847 23.4967 13.5801 23.3949 13.8845 23.3197L12.2373 23.3108C8.75954 23.2887 5.89943 25.7933 5.74725 28.9926L5.68903 30.2581C6.58421 29.3554 7.77032 28.6828 9.16681 28.3731C9.52488 26.2313 11.0154 24.4481 12.9982 23.6161" fill="#D3D3D3"/>
<path d="M143.883 17.4786C135.956 17.4786 74.9672 20.4301 74.9672 20.4301L15.2138 23.1161C14.7572 23.1383 14.3096 23.2091 13.8799 23.3197C13.5801 23.3993 13.2846 23.4967 12.9982 23.6162C11.0154 24.4481 9.52488 26.2314 9.16681 28.3731C9.18915 28.3731 9.20704 28.3687 9.22503 28.3643C9.5831 28.289 9.99489 28.2359 10.3664 28.2094L73.4588 23.8153C73.4588 23.8153 74.5286 23.7357 76.395 23.5985C89.0798 22.6825 138.923 19.1026 146.228 18.8725C149.406 18.7752 151.563 18.9168 153.085 19.1823C151.841 18.3238 149.661 17.4787 143.883 17.4787" fill="#BFBFBF"/>
<path d="M9.0415 37.5684C9.0415 37.5507 9.04151 37.533 9.03692 37.5197C9.02776 37.2675 9.0235 37.0153 9.0235 36.7586L9.0414 29.3909C9.0728 29.028 9.11301 28.7094 9.16673 28.3776C7.77024 28.6829 6.58412 29.3555 5.68894 30.2626V30.2892L5.41591 35.9754C4.99965 44.6971 11.8657 52.2064 21.0592 53.4986C14.3006 51.1666 9.38158 44.8697 9.0414 37.5684" fill="#E9E9E9"/>
<path d="M160.667 26.0677C159.978 23.302 158.344 21.7001 157.226 20.9081C156.38 20.3593 155.565 19.6071 153.085 19.1779C153.546 19.4965 153.878 19.8106 154.218 20.0894C155.252 20.9966 156.747 22.8152 157.32 25.8774C157.615 27.4527 157.445 30.4396 157.055 33.9088C156.63 37.6613 155.95 41.9757 155.305 45.6927C155.305 45.7016 155.301 45.706 155.301 45.7149C155.301 45.706 155.305 45.7016 155.305 45.6927C154.997 47.476 154.697 49.1266 154.441 50.5028C154.339 51.0515 154.177 51.5028 153.913 51.9675C153.9 51.994 153.748 52.2684 153.649 52.3967H153.645V52.4011C153.694 52.3923 153.743 52.3834 153.792 52.379C156.098 52.0825 157.964 50.5426 158.331 48.5425C159.504 42.2146 161.594 29.767 160.667 26.0677" fill="#DEDEDE"/>
<path d="M55.4836 55.7996L55.5239 55.804L55.1524 55.8173L57.7574 55.9633L74.7211 56.4633V54.9323L55.4836 55.7996Z" fill="#D3D3D3"/>
<path d="M149.446 54.6048L145.302 54.6004L145.369 58.552L147.513 58.6139C150.01 58.7334 152.226 58.1626 152.79 55.9279C153.049 54.888 153.34 53.6933 153.649 52.3967C152.727 53.7419 151.174 54.6048 149.446 54.6048" fill="#D3D3D3"/>
<path d="M55.4836 55.7995L74.7211 54.9322V54.5472L32.4282 54.5118L55.1524 55.8172L55.5239 55.804L55.4836 55.7995Z" fill="#E9E9E9"/>
<path d="M153.645 52.3967C153.488 52.4144 153.331 52.4233 153.175 52.4321L145.266 52.6711L145.302 54.6004L149.446 54.6048C151.174 54.6048 152.727 53.7419 153.649 52.3967C153.649 52.3967 153.649 52.3967 153.654 52.3967H153.649H153.645" fill="#BFBFBF"/>
<path d="M157.055 33.9088C157.445 30.4396 157.61 27.4527 157.32 25.8774C156.747 22.8152 155.252 20.9965 154.218 20.0894C153.878 19.8106 153.542 19.4964 153.085 19.1778C153.085 19.1778 153.085 19.1778 153.081 19.1778C151.559 18.9168 149.406 18.7752 146.228 18.8725C138.928 19.0982 89.0842 22.6825 76.3994 23.5985C74.5285 23.7356 73.4632 23.8109 73.4632 23.8109L10.3708 28.2094C9.97689 28.2359 9.53826 28.2934 9.17123 28.3775C9.11302 28.7094 9.07727 29.028 9.04143 29.3909L9.02356 36.7586C9.02356 37.0108 9.02814 37.2674 9.04143 37.5197C9.04143 37.5329 9.04143 37.5506 9.04143 37.5683C9.3816 44.8697 14.3006 51.1665 21.0593 53.4985C21.0727 53.5029 21.0906 53.5074 21.104 53.5118C22.9571 54.1446 24.9712 54.5074 27.0436 54.5074L40.7802 54.5207L74.721 54.5473V54.5428L145.248 52.6711H145.266L153.175 52.4321C153.331 52.4277 153.488 52.4144 153.645 52.3967H153.649C153.649 52.3967 153.649 52.3967 153.654 52.3967C153.748 52.2684 153.9 51.994 153.913 51.9675C154.178 51.5028 154.334 51.0515 154.437 50.5028C154.697 49.1266 154.997 47.476 155.306 45.6928C155.306 45.7016 155.301 45.706 155.301 45.7149C155.301 45.706 155.306 45.7016 155.306 45.6928C155.95 41.9757 156.63 37.6613 157.056 33.9088" fill="#D2D2D2"/>
<path d="M36.828 38.4224C37.5889 38.4224 38.2155 38.3383 38.7123 38.1613C39.2092 37.9888 39.621 37.7188 39.9522 37.3516C40.2789 36.9887 40.534 36.5639 40.7086 36.0771C40.8876 35.5948 40.9772 35.0461 40.9772 34.4399C40.9772 33.7009 40.7892 33.1522 40.4132 32.7849C40.0372 32.4221 39.4419 32.2406 38.6273 32.2406C38.041 32.2406 37.6516 32.2495 37.4501 32.2628L36.1029 38.4224H36.828ZM40.2028 39.334C40.6639 39.7057 40.9995 40.0641 41.2099 40.4093C41.4247 40.7544 41.6038 41.2589 41.747 41.9182L42.0827 43.5112C42.2036 44.0909 42.3199 44.5024 42.4318 44.7502C42.5437 44.9936 42.6959 45.1972 42.8839 45.352C43.0719 45.5069 43.327 45.622 43.6582 45.6972L43.4971 46.4495H39.3882C39.1331 45.737 38.9093 44.8918 38.7213 43.9095L38.3498 42.02C38.2424 41.4536 38.117 41.0022 37.9693 40.6792C37.8261 40.3517 37.6381 40.1172 37.4188 39.9712C37.195 39.8296 36.8951 39.7544 36.5192 39.7544H35.803L34.975 43.3741C34.9212 43.6263 34.8855 43.8431 34.8586 44.0245C34.8362 44.206 34.8273 44.4361 34.8273 44.7104C34.8273 45.0556 34.9168 45.3034 35.0958 45.4494C35.2749 45.591 35.5569 45.6751 35.9418 45.6972L35.7807 46.4495H29.8277L29.9888 45.6972C30.3111 45.6087 30.5617 45.4804 30.7318 45.3211C30.9019 45.1618 31.0541 44.9405 31.1749 44.644C31.2958 44.352 31.4211 43.9316 31.542 43.3741L33.6412 33.9841C33.7396 33.5372 33.7889 33.0902 33.7889 32.6522C33.7889 32.3336 33.7128 32.099 33.5651 31.9486C33.4129 31.8026 33.1712 31.7052 32.8355 31.6609L32.9966 30.9087H38.7392C39.518 30.9087 40.1312 30.9308 40.5788 30.9706C41.0264 31.0149 41.4561 31.0945 41.8679 31.2229C42.2797 31.3468 42.6333 31.5016 42.9287 31.6875C43.2241 31.8734 43.4748 32.0946 43.6896 32.3557C43.9 32.6123 44.0611 32.9132 44.173 33.254C44.2848 33.5947 44.3386 33.9797 44.3386 34.4045C44.3386 35.5506 43.9984 36.5241 43.3136 37.3206C42.6288 38.1171 41.5904 38.7543 40.1939 39.2322L40.2028 39.334Z" fill="white"/>
<path d="M47.7223 40.2588C49.1322 40.2189 50.2154 39.9534 50.9629 39.4534C51.7104 38.9578 52.0863 38.2542 52.0863 37.3427C52.0863 36.9532 51.9969 36.6612 51.8178 36.4576C51.6343 36.2585 51.3836 36.1567 51.0614 36.1567C50.3452 36.1567 49.7052 36.5063 49.1322 37.2055C48.5593 37.9046 48.0894 38.9224 47.7223 40.2588ZM53.8275 44.082C53.0487 44.9449 52.2161 45.5909 51.321 46.0069C50.4258 46.4229 49.4545 46.6308 48.4116 46.6308C47.5164 46.6308 46.7511 46.476 46.12 46.1662C45.4933 45.8564 45.0189 45.3918 44.6966 44.7812C44.3788 44.1705 44.2222 43.4404 44.2222 42.5908C44.2222 42.1969 44.2759 41.6925 44.3833 41.0774C44.5265 40.2411 44.7503 39.4976 45.0502 38.8427C45.4262 38.0418 45.9185 37.3471 46.5228 36.7718C47.1315 36.1966 47.8432 35.7496 48.6623 35.4399C49.4769 35.1301 50.3765 34.9708 51.3478 34.9708C52.5026 34.9708 53.3754 35.1788 53.9752 35.5948C54.5749 36.0063 54.8748 36.6391 54.8748 37.4887C54.8748 38.0684 54.7585 38.5772 54.5212 39.0153C54.2885 39.4578 53.8991 39.8561 53.353 40.2101C52.807 40.5685 52.0371 40.8561 51.0435 41.0774C50.0498 41.2986 48.8503 41.4225 47.4448 41.4535C47.3464 41.9005 47.2971 42.3651 47.2971 42.843C47.2971 43.1218 47.3239 43.3917 47.3777 43.6439C47.4314 43.8961 47.5254 44.1218 47.6641 44.321C47.8029 44.5201 47.9864 44.675 48.2192 44.7944C48.4474 44.9095 48.7428 44.9714 49.1054 44.9714C49.7812 44.9714 50.39 44.8343 50.936 44.5643C51.4821 44.2988 52.1222 43.8165 52.8562 43.1262L53.8275 44.082Z" fill="white"/>
<path d="M56.4638 43.2635C56.4996 43.8077 56.6115 44.2458 56.804 44.5777C56.992 44.9096 57.2202 45.1353 57.4977 45.2592C57.7753 45.3875 58.0975 45.4494 58.4645 45.4494C59.0733 45.4494 59.5432 45.3034 59.87 45.0114C60.2012 44.7193 60.3668 44.3078 60.3668 43.7768C60.3668 43.4537 60.3131 43.1882 60.2057 42.967C60.0983 42.7457 59.9192 42.5333 59.6775 42.3253C59.4313 42.1129 59.0285 41.843 58.478 41.5111C57.7081 41.0554 57.1531 40.5819 56.804 40.0907C56.4504 39.6039 56.2803 39.0552 56.2803 38.4446C56.2803 37.3295 56.701 36.471 57.547 35.8736C58.3885 35.2718 59.5701 34.9753 61.0919 34.9753C61.6827 34.9753 62.3183 35.0196 62.9986 35.1169C63.679 35.2099 64.2967 35.3382 64.8561 35.4975L64.2564 38.2189H62.7972C62.7256 37.5109 62.5466 36.9932 62.2512 36.6613C61.9558 36.325 61.5305 36.1568 60.9755 36.1568C60.4608 36.1568 60.049 36.2896 59.7402 36.5507C59.4269 36.8117 59.2702 37.1657 59.2702 37.6171C59.2702 37.8959 59.3329 38.1437 59.4492 38.3561C59.5701 38.5685 59.7581 38.7809 60.0222 38.9933C60.2818 39.2057 60.6712 39.4623 61.1859 39.7677C61.996 40.2456 62.5824 40.7412 62.936 41.2456C63.2896 41.7545 63.4641 42.3519 63.4641 43.0334C63.4641 43.8077 63.2538 44.4715 62.8375 45.0158C62.4168 45.5645 61.8438 45.9672 61.1188 46.2327C60.3937 46.4982 59.5656 46.6309 58.6391 46.6309C57.8155 46.6309 57.0546 46.5822 56.3474 46.4849C55.6402 46.3875 54.9778 46.2548 54.3557 46.0866L55.0002 43.2635H56.4638Z" fill="white"/>
<path d="M72.6442 44.3785C72.0981 44.9626 71.6147 45.4096 71.1806 45.7238C70.7509 46.0335 70.3033 46.2636 69.8378 46.4096C69.3678 46.5601 68.8262 46.6309 68.2131 46.6309C67.5909 46.6309 67.0717 46.5203 66.6599 46.2946C66.2526 46.0733 65.9527 45.7724 65.7692 45.3963C65.5857 45.0202 65.4917 44.5998 65.4917 44.1263C65.4917 43.7723 65.5185 43.4316 65.5723 43.1086C65.626 42.7855 65.7379 42.2545 65.908 41.52L67.0941 36.5772H65.5409L65.7021 35.8293C66.1765 35.7984 66.548 35.7187 66.8166 35.5948C67.0851 35.4665 67.3134 35.2851 67.5014 35.0417C67.6894 34.7983 67.8684 34.4664 68.0385 34.0416C68.2086 33.6168 68.3966 33.0371 68.6025 32.307H71.3686L70.6972 35.1567H73.4991L73.1858 36.5772H70.366L69.0859 41.781C69.0321 42.0111 68.9828 42.2324 68.9382 42.4536C68.8933 42.6749 68.8531 42.8829 68.8218 43.0864C68.7904 43.2856 68.768 43.4537 68.7591 43.5865C68.7457 43.7192 68.7412 43.8387 68.7412 43.9449C68.7412 44.3033 68.8039 44.5644 68.9382 44.7237C69.068 44.8874 69.2604 44.9715 69.5111 44.9715C69.8602 44.9715 70.2138 44.8476 70.5763 44.6042C70.9434 44.3653 71.3372 43.9891 71.758 43.4803L72.6442 44.3785Z" fill="white"/>
<path d="M81.3991 39.3693C81.4528 39.1259 81.4975 38.856 81.5289 38.5551C81.5647 38.2542 81.5827 37.9622 81.5827 37.6834C81.5827 37.1833 81.4842 36.8028 81.2962 36.5461C81.1037 36.2851 80.7859 36.1567 80.3518 36.1567C79.6356 36.1567 79.0045 36.5107 78.4495 37.2232C77.899 37.9312 77.4514 38.887 77.1112 40.0862C76.7755 41.2854 76.6054 42.3607 76.6054 43.3076C76.6054 43.8607 76.6905 44.2767 76.8561 44.5466C77.0172 44.821 77.2768 44.9582 77.6214 44.9582C78.1272 44.9582 78.642 44.7148 79.1701 44.2236C79.6983 43.7368 80.119 43.1616 80.4413 42.5023C80.7636 41.8385 81.0545 40.9358 81.3052 39.7897L81.3991 39.3693ZM83.1358 35.7939L84.1742 34.9708L85.4632 35.1567L83.6908 43.0908C83.5968 43.4935 83.5296 43.8165 83.4894 44.0599C83.4446 44.3033 83.4267 44.5068 83.4267 44.675C83.4267 45.0157 83.5072 45.2635 83.6773 45.4139C83.8474 45.5644 84.1473 45.6617 84.577 45.6971L84.4517 46.4494H80.0295L80.6516 44.1174L80.4995 44.0687C79.9758 44.7369 79.4924 45.2546 79.0448 45.6263C78.5927 45.9936 78.1541 46.2547 77.7199 46.4052C77.2858 46.5556 76.7845 46.6308 76.216 46.6308C75.6789 46.6308 75.2044 46.5069 74.7971 46.2547C74.3898 46.0069 74.0676 45.6086 73.8303 45.0644C73.5931 44.5245 73.4767 43.8342 73.4767 43.0023C73.4767 42.2058 73.5707 41.4004 73.7587 40.5862C73.9467 39.7764 74.2242 39.0197 74.5912 38.3162C74.9583 37.6126 75.4238 37.0108 75.9833 36.5107C76.5472 36.0107 77.1828 35.6257 77.89 35.3647C78.6017 35.1036 79.376 34.9708 80.213 34.9708C81.3544 34.9708 82.3301 35.2452 83.1358 35.7939Z" fill="white"/>
<path d="M86.8149 35.1567H91.5952L90.154 41.3474C89.9481 42.2324 89.8183 42.8386 89.7735 43.1705C89.7287 43.5068 89.7064 43.7679 89.7064 43.9582C89.7064 44.3122 89.7735 44.5732 89.9168 44.7325C90.06 44.8918 90.2704 44.9715 90.5479 44.9715C90.7 44.9715 90.8657 44.9317 91.0402 44.8609C91.2148 44.7901 91.3938 44.6839 91.5684 44.5423C91.7474 44.4051 91.9622 44.206 92.2174 43.9582C92.468 43.7059 92.6918 43.4404 92.8843 43.1528C93.0767 42.8696 93.2334 42.5643 93.3632 42.2368C93.4885 41.9138 93.6049 41.4978 93.7123 40.9978L94.979 35.1567H98.2867L96.4784 43.1926C96.4381 43.3741 96.3845 43.6351 96.3218 43.9714C96.2546 44.3122 96.2233 44.5954 96.2233 44.821C96.2233 45.1396 96.3128 45.3609 96.4919 45.476C96.6754 45.5954 96.9574 45.6707 97.3423 45.6972L97.1678 46.4495H92.8261L93.4483 44.1175L93.3095 44.0688C92.5979 44.9494 91.9086 45.5998 91.2417 46.0114C90.5792 46.4273 89.8228 46.6309 88.9813 46.6309C88.2025 46.6309 87.5893 46.4141 87.1372 45.976C86.6852 45.5423 86.4569 44.9405 86.4569 44.1706C86.4569 43.6794 86.533 43.0908 86.6852 42.4094L87.6341 38.1967C87.7057 37.8472 87.7594 37.5772 87.7863 37.387C87.8131 37.1967 87.8265 37.033 87.8265 36.9002C87.8265 36.5639 87.7414 36.3294 87.5758 36.1922C87.4057 36.055 87.1058 35.9621 86.6762 35.909L86.8149 35.1567Z" fill="white"/>
<path d="M108.917 38.2543H106.858C106.858 37.7454 106.8 37.3914 106.688 37.1923C106.576 36.9976 106.388 36.8958 106.12 36.8958C105.999 36.8958 105.869 36.9224 105.735 36.971C105.6 37.0197 105.444 37.1082 105.274 37.2321C105.099 37.3604 104.893 37.564 104.651 37.8428C104.41 38.1215 104.208 38.3959 104.047 38.6614C103.886 38.9269 103.752 39.2057 103.644 39.4977C103.537 39.7898 103.434 40.1615 103.344 40.6084L102.078 46.4495H98.7701L100.578 38.4136C100.748 37.6613 100.833 37.1171 100.833 36.7852C100.833 36.4666 100.744 36.2453 100.56 36.1303C100.381 36.0108 100.099 35.9356 99.7145 35.909L99.8891 35.1568L103.054 35.0284H104.356L103.492 37.6702L103.631 37.7189C104.275 36.8162 104.956 36.1303 105.672 35.6701C106.384 35.2054 107.153 34.9753 107.986 34.9753C108.492 34.9753 109.029 35.0461 109.597 35.1877L108.917 38.2543Z" fill="white"/>
<path d="M116.392 39.3693C116.446 39.1259 116.49 38.856 116.526 38.5551C116.562 38.2542 116.58 37.9622 116.58 37.6834C116.58 37.1833 116.481 36.8028 116.289 36.5461C116.096 36.2851 115.783 36.1567 115.344 36.1567C114.633 36.1567 113.997 36.5107 113.447 37.2232C112.892 37.9312 112.449 38.887 112.108 40.0862C111.773 41.2854 111.603 42.3607 111.603 43.3076C111.603 43.8607 111.683 44.2767 111.849 44.5466C112.014 44.821 112.27 44.9582 112.614 44.9582C113.124 44.9582 113.639 44.7148 114.163 44.2236C114.691 43.7368 115.116 43.1616 115.438 42.5023C115.761 41.8385 116.047 40.9358 116.302 39.7897L116.392 39.3693ZM118.133 35.7939L119.171 34.9708L120.46 35.1567L118.683 43.0908C118.594 43.4935 118.527 43.8165 118.482 44.0599C118.442 44.3033 118.419 44.5068 118.419 44.675C118.419 45.0157 118.504 45.2635 118.674 45.4139C118.845 45.5644 119.14 45.6617 119.574 45.6971L119.444 46.4494H115.022L115.644 44.1174L115.497 44.0687C114.973 44.7369 114.485 45.2546 114.037 45.6263C113.59 45.9936 113.147 46.2547 112.713 46.4052C112.278 46.5556 111.777 46.6308 111.209 46.6308C110.672 46.6308 110.202 46.5069 109.794 46.2547C109.387 46.0069 109.065 45.6086 108.827 45.0644C108.59 44.5245 108.469 43.8342 108.469 43.0023C108.469 42.2058 108.563 41.4004 108.751 40.5862C108.939 39.7764 109.217 39.0197 109.588 38.3162C109.955 37.6126 110.421 37.0108 110.98 36.5107C111.54 36.0107 112.175 35.6257 112.887 35.3647C113.599 35.1036 114.369 34.9708 115.206 34.9708C116.352 34.9708 117.327 35.2452 118.133 35.7939Z" fill="white"/>
<path d="M132.702 46.4494H127.922L129.363 40.2588C129.569 39.3782 129.694 38.7675 129.743 38.4356C129.788 38.0993 129.811 37.8383 129.811 37.648C129.811 37.3072 129.739 37.055 129.591 36.8869C129.444 36.7187 129.233 36.6346 128.96 36.6346C128.714 36.6346 128.445 36.7276 128.154 36.909C127.859 37.0904 127.532 37.3781 127.174 37.763C126.812 38.148 126.525 38.5595 126.31 38.9932C126.096 39.4268 125.921 39.9667 125.791 40.6083L124.525 46.4494H121.221L123.03 38.4135C123.065 38.2277 123.119 37.971 123.182 37.6303C123.249 37.294 123.28 37.0108 123.28 36.7851C123.28 36.4665 123.191 36.2452 123.012 36.1302C122.828 36.0107 122.546 35.9399 122.166 35.9089L122.336 35.1567L125.505 35.0328H126.713L126.055 37.4887L126.194 37.5374C126.722 36.8913 127.215 36.3824 127.667 36.0151C128.123 35.6479 128.571 35.3824 129.023 35.2186C129.47 35.0549 129.967 34.9708 130.513 34.9708C131.305 34.9708 131.928 35.1921 132.38 35.6302C132.832 36.0638 133.056 36.6656 133.056 37.4312C133.056 37.9268 132.984 38.5153 132.827 39.1967L131.883 43.4094C131.807 43.759 131.753 44.0289 131.726 44.2192C131.699 44.4095 131.686 44.5732 131.686 44.7059C131.686 45.0511 131.775 45.29 131.945 45.4272C132.12 45.56 132.415 45.6529 132.841 45.6971L132.702 46.4494Z" fill="white"/>
<path d="M141.81 44.3785C141.269 44.9626 140.781 45.4096 140.351 45.7238C139.922 46.0335 139.47 46.2636 139.004 46.4096C138.534 46.5601 137.993 46.6309 137.379 46.6309C136.757 46.6309 136.238 46.5203 135.831 46.2946C135.419 46.0733 135.123 45.7724 134.935 45.3963C134.752 45.0202 134.662 44.5998 134.662 44.1263C134.662 43.7723 134.685 43.4316 134.739 43.1086C134.797 42.7855 134.904 42.2545 135.074 41.52L136.26 36.5772H134.707L134.868 35.8293C135.343 35.7984 135.714 35.7187 135.983 35.5948C136.256 35.4665 136.48 35.2851 136.672 35.0417C136.86 34.7983 137.035 34.4664 137.205 34.0416C137.375 33.6168 137.563 33.0371 137.769 32.307H140.535L139.863 35.1567H142.665L142.352 36.5772H139.532L138.252 41.781C138.198 42.0111 138.149 42.2324 138.104 42.4536C138.06 42.6749 138.019 42.8829 137.988 43.0864C137.957 43.2856 137.939 43.4537 137.925 43.5865C137.916 43.7192 137.907 43.8387 137.907 43.9449C137.907 44.3033 137.975 44.5644 138.104 44.7237C138.234 44.8874 138.427 44.9715 138.682 44.9715C139.026 44.9715 139.38 44.8476 139.747 44.6042C140.11 44.3653 140.504 43.9847 140.924 43.4803L141.81 44.3785Z" fill="white"/>
<path d="M145.378 59.0165L145.266 52.6799V52.671H145.248L74.721 54.5428V66.517H136.466C136.466 66.517 140.669 66.7294 143.068 64.3443C145.033 62.384 145.454 60.0343 145.378 59.0165" fill="#B9B9B9"/>
<path d="M90.5389 60.4237H88.7844V62.6362H90.5389C91.3133 62.6362 91.7474 62.1672 91.7474 61.5255C91.7474 60.8839 91.3133 60.4237 90.5389 60.4237ZM90.436 57.3571H88.7844V59.4369H90.436C91.1477 59.4369 91.6311 59.0696 91.6311 58.397C91.6311 57.7244 91.1477 57.3571 90.436 57.3571ZM90.6419 63.6274H87.6744V56.3704H90.53C91.8907 56.3704 92.7456 57.1315 92.7456 58.3572C92.7456 59.1404 92.2488 59.7024 91.7564 59.8971C92.3249 60.1184 92.8575 60.6582 92.8575 61.5786C92.8575 62.915 91.9444 63.6274 90.6419 63.6274Z" fill="white"/>
<path d="M98.3538 57.3572H96.7022V59.6317H98.3538C99.0968 59.6317 99.6026 59.2113 99.6026 58.4988C99.6026 57.7864 99.0968 57.3572 98.3538 57.3572ZM99.6429 63.6275L98.0942 60.5698H96.7022V63.6275H95.5877V56.366H98.4344C99.8264 56.366 100.713 57.2554 100.713 58.49C100.713 59.5299 100.073 60.1892 99.249 60.4149L100.941 63.6275H99.6429Z" fill="white"/>
<path d="M105.855 58.0076L104.71 61.2291H106.97L105.855 58.0076ZM107.785 63.6274L107.279 62.1672H104.378L103.877 63.6274H102.691L105.381 56.3704H106.276L108.971 63.6274H107.785Z" fill="white"/>
<path d="M115.792 63.6275L112.404 58.521V63.6275H111.289V56.366H112.31L115.702 61.4636V56.366H116.817V63.6275H115.792Z" fill="white"/>
<path d="M123.723 57.8439C123.414 57.512 123.003 57.3571 122.475 57.3571H121.123V62.6362H122.475C123.003 62.6362 123.414 62.4858 123.723 62.1495C124.104 61.7291 124.113 60.9459 124.113 59.9458C124.113 58.9457 124.104 58.2643 123.723 57.8439ZM124.484 62.9416C124.019 63.4018 123.352 63.6274 122.586 63.6274H120.008V56.3704H122.586C123.352 56.3704 124.019 56.5916 124.484 57.0518C125.281 57.8351 125.227 58.8971 125.227 59.9458C125.227 60.9945 125.281 62.1583 124.484 62.9416Z" fill="white"/>
<path d="M130.101 63.685C129 63.685 128.204 63.4328 127.505 62.7292L128.248 62.0035C128.786 62.5345 129.372 62.6982 130.124 62.6982C131.082 62.6982 131.641 62.2911 131.641 61.5876C131.641 61.269 131.547 61.0079 131.35 60.8353C131.167 60.6583 130.979 60.5875 130.549 60.5255L129.681 60.4061C129.081 60.322 128.607 60.1184 128.289 59.822C127.926 59.4857 127.752 59.0299 127.752 58.4369C127.752 57.1714 128.678 56.3085 130.204 56.3085C131.176 56.3085 131.856 56.5519 132.483 57.1315L131.771 57.8263C131.319 57.397 130.795 57.2643 130.173 57.2643C129.309 57.2643 128.835 57.7555 128.835 58.3971C128.835 58.6626 128.915 58.8971 129.112 59.0697C129.3 59.2334 129.6 59.3529 129.936 59.406L130.773 59.5255C131.453 59.6317 131.834 59.7954 132.143 60.0698C132.545 60.4149 132.742 60.9371 132.742 61.5566C132.742 62.8929 131.641 63.685 130.101 63.685Z" fill="white"/>
<g clip-path="url(#clip1_1_39)">
<path d="M204.993 36.4478H208.735V33.1132C208.735 30.5534 209.59 28.465 211.298 26.8483C213.007 25.2315 215.246 24.4231 218.014 24.4231C220.03 24.4231 222.218 24.7768 224.576 25.4841L223.704 31.547C222.918 31.3449 222.218 31.2439 221.603 31.2439C219.108 31.2439 217.86 32.3891 217.86 34.6795V36.4478H223.756V43.7738H217.86V61.5583H208.735V43.7738H204.993V36.4478Z" fill="#D2D2D2"/>
<path d="M237.039 35.8046C233.007 35.8046 229.691 37.0508 227.094 39.5432C224.531 42.002 223.249 45.1682 223.249 49.0417C223.249 52.9489 224.531 56.149 227.094 58.6414C229.657 61.1339 232.973 62.3801 237.039 62.3801C241.106 62.3801 244.421 61.1508 246.984 58.692C249.582 56.1996 250.88 52.9825 250.88 49.042C250.88 47.5218 250.677 46.1119 250.276 44.8102C249.997 44.8772 249.71 44.9117 249.423 44.913C248.847 44.9122 248.279 44.7782 247.765 44.5218C247.251 44.2654 246.805 43.8937 246.463 43.4365C246.219 43.4875 245.97 43.5138 245.72 43.5151C244.743 43.5151 243.806 43.1327 243.116 42.452C242.425 41.7713 242.037 40.8481 242.037 39.8854C242.038 39.784 242.043 39.6826 242.053 39.5816C241.445 39.2793 240.934 38.8168 240.577 38.2455C240.22 37.6743 240.03 37.0166 240.029 36.3456C240.03 36.2507 240.035 36.1559 240.044 36.0614C239.092 35.8935 238.093 35.8047 237.039 35.8047V35.8046ZM237.039 43.2319C238.577 43.2319 239.842 43.7704 240.833 44.8482C241.824 45.926 242.32 47.324 242.32 49.0418C242.32 50.7596 241.807 52.1743 240.782 53.2859C239.791 54.3637 238.543 54.9028 237.04 54.9028C235.536 54.9028 234.289 54.3469 233.297 53.2354C232.306 52.1239 231.811 50.7259 231.811 49.0418C231.811 47.324 232.306 45.926 233.297 44.8482C234.289 43.7704 235.536 43.2319 237.04 43.2319L237.039 43.2319Z" fill="#D2D2D2"/>
<path d="M267.022 35.791C271.089 35.791 274.404 37.0373 276.968 39.5298C279.565 41.9886 280.864 45.1548 280.864 49.0283C280.864 52.9692 279.565 56.1859 276.968 58.6784C274.404 61.1373 271.089 62.3667 267.022 62.3667C262.956 62.3667 259.64 61.1204 257.077 58.6279C254.514 56.1354 253.232 52.9355 253.232 49.0283C253.232 45.1548 254.514 41.9886 257.077 39.5298C259.675 37.0373 262.99 35.791 267.022 35.791ZM261.794 49.0283C261.794 50.7125 262.289 52.1103 263.28 53.2218C264.271 54.3334 265.519 54.8891 267.022 54.8891C268.526 54.8891 269.774 54.3502 270.765 53.2724C271.79 52.1608 272.303 50.7462 272.303 49.0283C272.303 47.3105 271.807 45.9127 270.816 44.8348C269.825 43.757 268.56 43.2181 267.022 43.2181C265.519 43.2181 264.271 43.757 263.28 44.8348C262.289 45.9127 261.794 47.3105 261.794 49.0283Z" fill="#D2D2D2"/>
<path d="M301.498 25.1305H310.674L310.725 61.5584H301.498V58.2238C300.643 60.9521 298.285 62.3162 294.423 62.3162C291.142 62.3162 288.459 61.07 286.375 58.5775C284.29 56.0849 283.248 52.8682 283.248 48.9273C283.248 45.1549 284.341 42.0224 286.528 39.5299C288.75 37.0037 291.501 35.7406 294.782 35.7406C297.345 35.7406 299.037 36.1616 299.857 37.0037C300.677 37.8457 301.224 38.6036 301.498 39.2772V25.1305ZM292.168 49.1294C292.168 50.8473 292.629 52.2451 293.552 53.3229C294.509 54.3671 295.739 54.8892 297.243 54.8892C298.747 54.8892 299.96 54.3671 300.882 53.3229C301.805 52.2451 302.267 50.8473 302.267 49.1294C302.267 47.3443 301.805 45.9127 300.882 44.8349C299.96 43.757 298.747 43.2181 297.243 43.2181C295.739 43.2181 294.509 43.7739 293.552 44.8854C292.629 45.9633 292.168 47.3779 292.168 49.1294Z" fill="#D2D2D2"/>
<path d="M321.234 48.2705L312.007 36.4479H322.926L325.54 40.3888C326.087 41.1635 326.463 42.2582 326.668 43.6728C326.839 42.8308 326.993 42.2076 327.13 41.8034C327.266 41.3656 327.506 40.894 327.847 40.3888L330.462 36.4479H341.381L332.102 48.2705L342.355 61.5584H331.436L328.001 56.6575C327.42 55.8155 326.976 54.6871 326.668 53.2724C326.532 54.0134 326.378 54.5692 326.207 54.9397C326.07 55.3102 325.746 55.8828 325.233 56.6575L321.901 61.5584H311.033L321.234 48.2705Z" fill="#D2D2D2"/>
<path d="M342.637 36.4478H351.762V39.8835C352.856 37.1552 355.214 35.791 358.836 35.791C362.117 35.791 364.783 37.0036 366.834 39.4288C368.918 41.8202 369.961 44.9696 369.961 48.8768C369.961 52.885 368.918 56.1354 366.834 58.6279C364.783 61.0868 362.1 62.3162 358.785 62.3162C355.436 62.3162 353.095 60.9689 351.762 58.2742V71.0063H342.637V36.4478ZM351.147 49.1294C351.147 50.9482 351.608 52.3966 352.531 53.4745C353.488 54.5186 354.752 55.0407 356.325 55.0407C357.828 55.0407 359.024 54.5186 359.913 53.4745C360.836 52.3966 361.297 50.9819 361.297 49.2304C361.297 47.4789 360.836 46.0474 359.913 44.9359C358.99 43.8244 357.777 43.2686 356.273 43.2686C354.769 43.2686 353.539 43.8075 352.582 44.8854C351.625 45.9632 351.147 47.3779 351.147 49.1294Z" fill="#D2D2D2"/>
<path d="M335.577 20.7738C335.577 26.7007 331.077 30.9594 326.678 35.2948C322.407 31.0856 317.779 26.6449 317.779 20.7738C317.779 15.9302 321.763 12.0033 326.678 12.0033C331.592 12.0033 335.577 15.9298 335.577 20.7738Z" fill="#D2D2D2"/>
<path d="M324.306 15.8043C325.053 15.4526 325.89 15.2956 326.716 15.3075C328.013 15.2961 329.304 15.7543 330.314 16.5527C331.226 17.2703 331.905 18.2757 332.204 19.3896C332.571 20.7076 332.384 22.1608 331.709 23.3532C331.24 24.1964 330.535 24.9016 329.707 25.4055L326.173 22.157C326.101 22.0395 326.172 21.9048 326.206 21.7873C326.317 21.4685 326.245 21.0893 326.007 20.8442L323.933 18.8924C323.858 18.8024 323.685 18.8043 323.636 18.92C323.594 18.9823 323.614 19.0599 323.666 19.1098L325.242 20.5968C325.325 20.6586 325.34 20.7881 325.261 20.8585C325.189 20.9294 325.067 20.9103 325.005 20.8366L323.476 19.3972C323.4 19.2959 323.226 19.2821 323.165 19.4039C323.082 19.5561 323.26 19.6599 323.352 19.7522L324.785 21.1031C324.92 21.2058 324.796 21.428 324.637 21.3905C324.518 21.3424 324.441 21.233 324.347 21.1511L323.036 19.9168C322.966 19.8507 322.863 19.7565 322.762 19.8236C322.647 19.8735 322.644 20.0429 322.74 20.1138L324.052 21.3443C324.157 21.4514 324.286 21.5403 324.366 21.6688C324.413 21.8215 324.191 21.9595 324.081 21.833L322.552 20.3974C322.491 20.3422 322.415 20.2651 322.323 20.2989C322.192 20.326 322.15 20.5121 322.256 20.592L324.258 22.4799C324.535 22.7169 324.86 22.8205 325.203 22.7407C325.391 22.6944 325.549 22.5285 325.675 22.6253L328.892 25.8137C327.943 26.1772 326.906 26.3195 325.895 26.1824C324.523 26.0031 323.219 25.3274 322.314 24.2929C321.508 23.3875 321.024 22.2103 320.972 21.006C320.869 19.1145 321.885 17.2184 323.516 16.2225L327.178 19.6932C327.302 19.7883 327.297 19.9563 327.276 20.0947C327.154 20.632 327.359 21.1868 327.675 21.6226C328.065 22.157 328.656 22.5738 329.324 22.6766C329.707 22.7351 330.134 22.649 330.408 22.3635C330.708 22.057 330.764 21.5926 330.671 21.192C330.509 20.5106 330.03 19.9249 329.422 19.5732C329.024 19.351 328.549 19.2083 328.091 19.3101C327.942 19.3463 327.766 19.3406 327.657 19.2197L324.306 15.8043Z" fill="white"/>
</g>
<path fill-rule="evenodd" clip-rule="evenodd" d="M412 21.277H573V60.0821H412V21.277Z" fill="#D2D2D2"/>
<path fill-rule="evenodd" clip-rule="evenodd" d="M422.824 36.1393L418.605 55.1282L422.942 55.0097L424.7 47.227L430.912 47.1093L430.795 42.6272H425.755L426.224 40.6223L432.552 40.5038L432.435 36.1393H422.824ZM444.507 40.5038L444.273 40.2677L443.921 40.15L443.57 40.0324L443.101 39.9139H442.281L441.812 40.0324L441.343 40.15H441.227V36.7292L441.695 36.6116L442.164 36.4939H442.516L442.984 36.3754H444.508L444.86 36.4939L445.211 36.6116H445.563L445.914 36.7292L446.148 36.8468L446.5 36.9644L446.734 37.2006L446.969 37.3182L447.32 37.5535L447.672 37.7896L448.023 38.1434L448.257 38.3786L448.492 38.7324L448.726 39.0861L448.96 39.4399L449.195 39.7937L449.312 40.1474L449.429 40.5012L449.546 40.9726L449.663 41.3272L449.78 41.7986V42.27L449.897 42.6246V44.0388L449.78 44.5119L449.663 44.9833L449.546 45.9261L449.429 46.3992L449.077 47.342L448.843 47.6966L448.726 48.168L448.14 49.1108L447.906 49.4654L447.671 49.9368L447.32 50.2914L447.086 50.5258L446.851 50.762L446.617 50.9981L446.383 51.2325L446.148 51.4686L445.797 51.8215L445.563 52.0576L445.211 52.2938L444.86 52.5282L444.508 52.7643L444.156 52.9987L443.922 53.2348L443.454 53.3533L443.102 53.5894L442.75 53.7062L442.399 53.9423L441.93 54.0608L441.579 54.1793L441.227 54.2978V50.7585H441.344L441.696 50.5224L442.165 50.288L442.634 50.0518L442.985 49.8157L443.337 49.4628L443.688 49.2267L443.922 48.8738L444.273 48.6377L444.508 48.2848L444.86 47.8134L445.211 47.3403L445.446 46.7504L445.68 46.1605L445.914 45.6891L446.031 45.0992L446.148 44.5093V42.9749L446.031 42.385L445.797 41.9136L445.563 41.559L445.329 41.2061L444.977 40.8515L444.507 40.5038ZM441.226 40.15L440.757 40.2677L440.289 40.5038L439.82 40.739L439.352 40.9743L438.883 41.3289L438.415 41.8003L437.947 42.2717L437.595 42.7448L437.361 43.0977L437.127 43.4506L436.892 43.8052L436.658 44.2766L436.54 44.748L436.424 45.2212L436.19 45.811V46.2824L436.073 46.8723L436.19 47.4622V47.9336L436.424 48.5235L436.658 48.9966L437.01 49.468L437.361 49.9394L437.947 50.4125L438.416 50.6469L439.002 50.7654L439.471 50.8839L439.94 51.0024L440.408 50.8839H440.878L441.229 50.7654V54.3047H441.112L440.761 54.4215L440.292 54.54L439.941 54.6585H438.646L438.178 54.5383H437.709L437.358 54.4198L436.889 54.303L436.537 54.0669L436.069 53.9484L435.717 53.7123L435.249 53.3594L434.78 53.0047L434.429 52.6519L434.077 52.1805L433.726 51.8258L433.492 51.4729L433.257 51.0015L432.906 50.1755L432.788 49.7041L432.671 49.231L432.554 48.8781V48.4067L432.436 47.9336L432.554 47.4622V46.5194L432.671 46.1648V45.6934L432.788 45.222L432.906 44.8674L433.023 44.396L433.139 44.0414L433.373 43.6885L433.491 43.2171L433.725 42.8625L433.842 42.5096L433.959 42.2734L434.193 41.9205L434.31 41.6844L434.545 41.4483L434.662 41.2139L435.013 40.7416L435.365 40.2702L435.716 39.9165L436.068 39.5627L436.536 39.0905L436.888 38.8552L437.357 38.5014L437.709 38.2653L438.177 37.9116L438.645 37.6754L438.997 37.4402L439.465 37.3225L439.935 37.0864L440.403 36.9679L440.755 36.8503L441.223 36.7326V40.15H441.226ZM462.439 40.5038L462.205 40.2677L461.854 40.15L461.502 40.0324L461.034 39.9139H459.627L459.158 40.0324L459.042 40.15V36.6116H459.158L459.627 36.4939H459.978L460.447 36.3754H462.79L463.141 36.4939L463.493 36.6116L463.844 36.7292L464.078 36.8468L464.43 36.9644L464.664 37.0829L464.898 37.3191L465.25 37.5543L465.602 37.7905L465.954 38.0257L466.188 38.3795L466.423 38.6147L466.657 38.9685L466.891 39.3223L467.125 39.676L467.242 40.1474L467.36 40.5012L467.477 40.8541L467.594 41.3272L467.711 41.7986V42.1515L467.827 42.6246V44.0388L467.711 44.3934V44.9833L467.594 45.4547L467.477 45.8093L467.36 46.2807L467.125 46.7521L467.008 47.2252L466.774 47.6966L466.54 48.168L466.305 48.6394L466.071 48.994L465.838 49.4654L465.485 49.8183L465.251 50.2914L465.017 50.5258L464.783 50.762L464.548 50.9981L464.315 51.2325L463.963 51.4686L463.728 51.7047L463.377 51.9391L463.142 52.1753L462.791 52.5282L462.439 52.6467L462.088 52.8828L461.736 53.1172L461.385 53.3533L460.681 53.7062L460.213 53.9423L459.861 54.0608L459.51 54.1793L459.042 54.2978V50.7585L459.275 50.64L459.627 50.5215L460.095 50.2871L460.447 49.9325L460.915 49.6981L461.267 49.462L461.618 49.1073L461.852 48.8729L462.204 48.5183L462.437 48.2839L462.789 47.694L463.141 47.2226L463.375 46.7495L463.609 46.1596L463.844 45.5697L463.96 45.0983L464.077 44.5084V42.8616L463.96 42.3902L463.726 41.9188L463.492 41.4457L463.258 41.0928L462.906 40.739L462.439 40.5038ZM459.041 40.15H458.689L458.22 40.3853L457.751 40.6214L457.165 40.9743L456.814 41.3289L456.345 41.6818L455.876 42.1532L455.408 42.7448L455.291 42.9792L455.056 43.3339L454.822 43.8052L454.588 44.1581L454.471 44.6313L454.237 45.2212L454.12 45.6925V46.2824L454.003 46.8723L454.12 47.3437V47.9336L454.354 48.4067L454.588 48.9966L454.94 49.468L455.291 49.9394L455.878 50.294L456.347 50.5284L456.815 50.7646L457.402 50.8831H458.338L458.808 50.7646H459.042V54.3039L458.69 54.4207L458.221 54.5392H457.401L456.932 54.6576L456.581 54.5392H455.644L455.292 54.4207L454.824 54.1863L454.472 54.0678L454.004 53.8316L453.535 53.5972L453.066 53.2426L452.715 53.0065L452.246 52.5351L451.895 52.1822L451.661 51.8276L451.427 51.3562L451.193 51.0033L450.959 50.5302L450.842 50.1773L450.725 49.7059L450.607 49.2327L450.49 48.7614V46.5212L450.607 46.048V45.5766L450.725 45.2237L450.842 44.7506L450.959 44.3977L451.076 43.9263L451.31 43.5717L451.428 43.2188L451.545 42.8642L451.78 42.5113L451.896 42.1567L452.131 41.9223L452.248 41.5677L452.483 41.3333L452.6 41.0971L452.951 40.6257L453.303 40.2711L453.654 39.7997L454.007 39.446L454.475 39.0922L454.826 38.7384L455.178 38.3847L455.646 38.1494L456.115 37.9133L456.466 37.6772L456.935 37.4419L457.403 37.2066L457.872 37.0881L458.223 36.852L458.693 36.7344L459.044 36.6167V40.15H459.041ZM517.876 40.3853L517.525 40.2677L517.173 40.15L516.822 39.9139H515.063L514.594 40.0324H514.361V36.6116H514.477L514.947 36.4939L515.416 36.3754H518.111L518.462 36.4939L518.814 36.6116L519.165 36.7292L519.4 36.8468L519.75 36.9644L519.985 37.0829L520.22 37.3191L520.57 37.5543L520.921 37.7905L521.273 38.0257L521.506 38.3795L521.741 38.6147L521.976 38.9685L522.208 39.3223L522.443 39.676L522.561 40.1474L522.794 40.5012L522.912 40.8541V41.3272L523.029 41.6801L523.147 42.6246V43.922L523.029 44.3934V44.8648L522.912 45.3362L522.794 45.8093L522.678 46.2807L522.56 46.7521L522.325 47.2252L522.091 47.6966L521.858 48.168L521.623 48.5209L521.39 48.994L521.156 49.4654L520.569 50.2914L520.335 50.5258L520.102 50.762L519.867 50.9981L519.633 51.2325L519.4 51.4686L519.047 51.7047L518.814 51.9391L518.462 52.1753L518.111 52.4097L517.877 52.6458L517.526 52.8819L517.056 53.1163L516.705 53.3525L516.354 53.4709L515.651 53.8238L515.181 54.06L514.83 54.1785L514.362 54.297V50.6461H514.595L515.063 50.4117L515.416 50.1755L515.884 49.9394L516.237 49.705L516.587 49.4689L516.94 49.1142L517.29 48.8799L517.525 48.5252L517.758 48.2908L518.11 47.7009L518.461 47.2295L518.696 46.6379L518.929 46.1665L519.163 45.5766L519.281 44.9868L519.399 44.5154V42.8616L519.281 42.3902L519.046 41.9188L518.813 41.4457L518.579 41.0928L518.228 40.739L517.876 40.3853ZM514.36 40.0315L514.008 40.1492L513.539 40.3844L513.071 40.6205L512.601 40.9734L512.132 41.3281L511.664 41.681L511.196 42.1524L510.843 42.744L510.61 42.9784L510.376 43.333L510.141 43.8044L509.908 44.1573L509.79 44.6304L509.673 45.2203L509.438 45.6917V46.2816L509.322 46.753L509.438 47.3429V47.9327L509.673 48.4059L509.907 48.9957L510.258 49.4671L510.61 49.82L511.196 50.2932L511.665 50.5276L512.133 50.7637L512.719 50.8822H513.658L514.127 50.7637L514.361 50.6452V54.303L514.009 54.4198L513.54 54.5383H511.43L510.962 54.4198L510.611 54.303L510.141 54.1845L509.79 54.066L509.322 53.8299L508.852 53.5955L508.383 53.2409L508.031 52.888L507.562 52.5334L507.33 52.1805L506.977 51.8258L506.744 51.3544L506.51 51.0015L506.275 50.5284L506.159 50.057L506.041 49.7041L505.923 49.231L505.806 48.7596V46.5194L505.923 46.0463L506.041 45.5749V45.222L506.159 44.7489L506.275 44.396L506.393 43.9246L506.627 43.57L506.745 43.2171L506.861 42.8625L507.096 42.5096L507.213 42.1549L507.446 41.9205L507.799 41.3307L507.917 41.0945L508.267 40.6231L508.62 40.2685L508.97 39.7971L509.323 39.4434L509.791 39.0896L510.142 38.7358L510.612 38.3821L510.963 38.1468L511.431 37.9107L511.9 37.6746L512.252 37.4393L512.72 37.204L513.191 37.0855L513.659 36.8494L514.01 36.7318L514.362 36.6141V40.0315H514.36ZM558.077 54.5383L558.547 54.4198L558.897 54.1854L559.366 54.0669L559.718 53.8308L560.069 53.7123L560.537 53.4779L560.89 53.2417L561.358 52.8888L561.711 52.6527L562.061 52.2998L562.882 51.5923L563.233 51.2377L563.585 50.8848L563.936 50.4134L564.287 49.9403L564.521 49.4689L564.874 48.9975L565.106 48.4076L565.341 47.9345L565.576 47.3446L565.809 46.7547L566.161 45.6934L566.277 44.7489L566.395 43.8061V42.8616L566.277 41.9188L565.926 40.9743L565.576 40.1492L565.106 39.4416L564.519 38.6156L563.816 38.0257L562.997 37.4358L562.059 36.9636L561.004 36.6098L559.831 36.3737L558.543 36.1384H558.073V40.502H558.659L559.129 40.6205L559.716 40.8549L560.066 41.0911L560.535 41.3272L560.887 41.6801L561.12 42.0347L561.355 42.5061L561.589 42.9775V43.4489L561.707 44.0388L561.589 44.6304V45.3362L561.355 45.9261L561.12 46.6336L560.887 47.2252L560.653 47.8151L560.302 48.2865L559.949 48.7579L559.599 49.2293L559.13 49.5839L558.66 49.8183L558.192 50.1729H558.074V54.5383H558.077ZM553.272 36.1393L549.052 55.0097H556.2L556.553 54.8929H557.021L557.372 54.7744L557.724 54.6559L558.075 54.5374V50.1738L557.606 50.2923L557.138 50.5267L556.552 50.6452L556.082 50.7637H554.323L556.784 40.5029H558.073V36.1393H553.272ZM540.966 36.2578L545.654 36.1393L542.255 50.7646H548.466L546.123 55.0097H536.746L540.966 36.2578ZM530.768 36.1393H532.878L533.581 36.2569L534.168 36.3746L534.636 36.4931L535.222 36.6107L535.691 36.8459L536.043 37.2006L536.394 37.4358L536.746 37.7896L536.979 38.1434L537.214 38.4971L537.448 38.8509L537.564 39.3223V40.6197L537.448 40.9726L537.331 41.6801L537.213 42.27L536.978 42.7431L536.745 43.333L536.511 43.8044L536.276 44.1573L535.925 44.5119L535.573 44.8648L535.34 45.2194L534.872 45.4538L534.637 45.69L534.286 45.8085L533.934 46.0429L533.583 46.1613L533.349 46.2798L532.996 46.3983L535.459 53.1198L531.591 55.0071L530.77 53.0022V44.7463L531.121 44.5119L531.355 44.2758L531.59 44.1573L531.823 43.9229L532.058 43.5683L532.175 43.3339L532.408 43.0977L532.526 42.7448L532.644 42.5087V42.1541L532.762 41.6827V40.6223L532.644 40.2677V39.9139L532.409 39.6786L532.293 39.4425L532.058 39.2064L531.824 39.0887L531.591 38.9711L531.356 38.8535L531.122 38.7358L530.771 38.6173V36.1393H530.768ZM521.861 55.0097L526.315 36.2569L530.769 36.1393V38.6156H530.184L528.777 45.2212H529.48L529.831 45.1027L530.183 44.9842L530.534 44.8657L530.768 44.7472V53.003L528.54 47.1076L526.432 55.0088H521.861V55.0097Z" fill="white"/>
<path fill-rule="evenodd" clip-rule="evenodd" d="M490.695 49.7227L491.524 55.0102L487.263 55.1283L483.831 36.2041H487.5L489.985 50.5442L490.695 49.7227ZM514.957 21.277H518.508L497.087 55.0102L492.943 55.1283L489.512 36.2041H493.181L495.903 51.3674L514.957 21.277Z" fill="white"/>
<path fill-rule="evenodd" clip-rule="evenodd" d="M475.515 54.6538L475.983 54.5346L476.334 54.2987L476.686 54.1795L477.507 53.8226L477.975 53.5868L478.326 53.3491L478.678 52.994L479.146 52.7564L479.497 52.4013L479.967 52.0445L480.318 51.6893L480.67 51.3325L481.021 50.9774L481.372 50.503L481.606 50.0269L481.958 49.5526L482.192 49.0782L482.544 48.4846L482.777 48.0085L483.011 47.415L483.246 46.8214L483.597 45.7534L483.714 44.803L483.831 43.8543V42.9038L483.597 41.9551L483.363 41.0047L483.011 40.1743L482.543 39.4624L481.957 38.6312L481.254 38.0376L480.433 37.444L479.496 36.9688L478.441 36.6128L477.27 36.3752L475.981 36.1384H475.513V40.5294H476.099L476.567 40.6487L477.153 40.8846L477.505 41.1222L477.973 41.3598L478.325 41.7149L478.558 42.0717L478.793 42.5461L479.027 43.0204V43.4948L479.144 44.0884L479.027 44.6837L478.91 45.394L478.676 45.9875L478.558 46.6995L478.325 47.2948L478.091 47.8884L477.739 48.3628L477.388 48.8371L477.037 49.3115L476.568 49.6683L476.1 49.9042L475.632 50.2611H475.515V54.6538ZM470.711 36.1393L466.492 55.1282H473.64L473.991 55.0107H474.343L474.811 54.8914L475.162 54.7722L475.514 54.653V50.2619L475.046 50.3812L474.576 50.617L473.99 50.7363L473.522 50.8555H471.764L474.225 40.5303H475.514V36.1393H470.711Z" fill="white"/>
<defs>
<clipPath id="clip0_1_39">
<rect width="165" height="59" fill="white" transform="translate(615 12)"/>
</clipPath>
<clipPath id="clip1_1_39">
<rect width="165" height="59" fill="white" transform="translate(205 12)"/>
</clipPath>
</defs>
</svg>
